<svg width="11" height="16" viewBox="0 0 11 16" fill="none" xmlns="http://www.w3.org/2000/svg">
<path d="M10.1407 2.26368V0.753917C10.1407 0.623058 9.99026 0.550792 9.8887 0.63087L1.08401 7.50782C1.0092 7.566 0.948672 7.64049 0.907034 7.72562C0.865395 7.81075 0.84375 7.90427 0.84375 7.99903C0.84375 8.0938 0.865395 8.18732 0.907034 8.27245C0.948672 8.35757 1.0092 8.43207 1.08401 8.49024L9.8887 15.3672C9.99222 15.4473 10.1407 15.375 10.1407 15.2442V13.7344C10.1407 13.6387 10.0957 13.5469 10.0215 13.4883L2.99026 8.00001L10.0215 2.50978C10.0957 2.45118 10.1407 2.35939 10.1407 2.26368Z" fill="#1A1A1A"/>
</svg>
