<svg width="11" height="16" viewBox="0 0 11 16" fill="none" xmlns="http://www.w3.org/2000/svg">
<path d="M0.843722 13.7344L0.843721 15.2441C0.843721 15.375 0.994113 15.4473 1.09567 15.3672L9.90036 8.49022C9.97517 8.43205 10.0357 8.35755 10.0773 8.27242C10.119 8.18729 10.1406 8.09378 10.1406 7.99901C10.1406 7.90425 10.119 7.81073 10.0773 7.7256C10.0357 7.64047 9.97517 7.56598 9.90036 7.5078L1.09568 0.630847C0.99216 0.55077 0.843723 0.623035 0.843723 0.753894L0.843723 2.26366C0.843723 2.35936 0.888644 2.45116 0.962863 2.50975L7.99411 7.99804L0.962862 13.4883C0.888643 13.5469 0.843722 13.6387 0.843722 13.7344Z" fill="#1A1A1A"/>
</svg>
