<svg width="15" height="10" viewBox="0 0 15 10" fill="none" xmlns="http://www.w3.org/2000/svg">
<path d="M13.2275 9.64749L14.7373 9.64749C14.8682 9.64749 14.9404 9.4971 14.8603 9.39554L7.98339 0.590848C7.92521 0.51604 7.85072 0.455508 7.76559 0.413869C7.68046 0.372231 7.58694 0.350586 7.49218 0.350586C7.39741 0.350586 7.30389 0.372231 7.21877 0.413869C7.13364 0.455508 7.05914 0.51604 7.00097 0.590848L0.124012 9.39554C0.0439344 9.49905 0.116199 9.64749 0.247058 9.64749L1.75683 9.64749C1.85253 9.64749 1.94433 9.60257 2.00292 9.52835L7.4912 2.4971L12.9814 9.52835C13.04 9.60257 13.1318 9.64749 13.2275 9.64749Z" fill="#1A1A1A"/>
</svg>
