<svg width="15" height="10" viewBox="0 0 15 10" fill="none" xmlns="http://www.w3.org/2000/svg">
<path d="M1.75685 0.350557L0.247081 0.350557C0.116221 0.350557 0.0439557 0.500949 0.124034 0.60251L7.00099 9.4072C7.05916 9.48201 7.13366 9.54254 7.21879 9.58418C7.30392 9.62582 7.39743 9.64746 7.4922 9.64746C7.58697 9.64746 7.68048 9.62582 7.76561 9.58418C7.85074 9.54254 7.92523 9.48201 7.98341 9.4072L14.8604 0.60251C14.9404 0.498994 14.8682 0.350557 14.7373 0.350557L13.2275 0.350557C13.1318 0.350557 13.04 0.395479 12.9815 0.469697L7.49317 7.50095L2.00294 0.469698C1.94435 0.395479 1.85255 0.350557 1.75685 0.350557Z" fill="#1A1A1A"/>
</svg>
