<svg width="20" height="20" viewBox="0 0 20 20" fill="none" xmlns="http://www.w3.org/2000/svg">
<path d="M4.90625 7.55859H6.25V8.90234C6.25 8.9375 6.28516 8.96484 6.32812 8.96484H7.26562C7.30859 8.96484 7.34375 8.9375 7.34375 8.90039V7.55859H8.6875C8.72266 7.55859 8.75 7.52344 8.75 7.48047V6.54297C8.75 6.5 8.72266 6.46484 8.68555 6.46484H7.34375V5.12109C7.34375 5.08594 7.30859 5.05859 7.26562 5.05859H6.32812C6.28516 5.05859 6.25 5.08594 6.25 5.12109V6.46484H4.90625C4.87109 6.46484 4.84375 6.5 4.84375 6.54297V7.48047C4.84375 7.52344 4.87109 7.55859 4.90625 7.55859ZM11.3125 7.55859H15.0938C15.1289 7.55859 15.1562 7.52344 15.1562 7.48047V6.54297C15.1562 6.5 15.1289 6.46484 15.0918 6.46484H11.3125C11.2773 6.46484 11.25 6.5 11.25 6.54297V7.48047C11.25 7.52344 11.2773 7.55859 11.3125 7.55859ZM11.3125 12.7344H15.0938C15.1289 12.7344 15.1562 12.6992 15.1562 12.6562V11.7188C15.1562 11.6758 15.1289 11.6406 15.0918 11.6406H11.3125C11.2773 11.6406 11.25 11.6758 11.25 11.7188V12.6562C11.25 12.6992 11.2773 12.7344 11.3125 12.7344ZM11.3125 14.7656H15.0938C15.1289 14.7656 15.1562 14.7305 15.1562 14.6875V13.75C15.1562 13.707 15.1289 13.6719 15.0918 13.6719H11.3125C11.2773 13.6719 11.25 13.707 11.25 13.75V14.6875C11.25 14.7305 11.2773 14.7656 11.3125 14.7656ZM7.49023 13.1836L8.68555 11.7207C8.76953 11.6191 8.69922 11.4648 8.57031 11.4648H7.57812C7.5332 11.4648 7.49023 11.4844 7.46289 11.5215L6.79883 12.334L6.13477 11.5215C6.12079 11.5043 6.10326 11.4903 6.08336 11.4805C6.06347 11.4707 6.04169 11.4654 6.01953 11.4648H5.02539C4.89648 11.4648 4.82617 11.6191 4.91016 11.7207L6.10547 13.1836L4.88086 14.6836C4.79492 14.7852 4.86523 14.9395 4.99414 14.9395H5.98633C6.03125 14.9395 6.07422 14.9199 6.10156 14.8828L6.79492 14.0332L7.48828 14.8828C7.51758 14.918 7.56055 14.9395 7.60352 14.9395H8.5957C8.72461 14.9395 8.79492 14.7852 8.71094 14.6836L7.49023 13.1836ZM17.1875 2.1875H2.8125C2.4668 2.1875 2.1875 2.4668 2.1875 2.8125V17.1875C2.1875 17.5332 2.4668 17.8125 2.8125 17.8125H17.1875C17.5332 17.8125 17.8125 17.5332 17.8125 17.1875V2.8125C17.8125 2.4668 17.5332 2.1875 17.1875 2.1875ZM16.4844 16.4844H3.51562V3.51562H16.4844V16.4844Z" fill="#1A1A1A"/>
</svg>
