<svg width="20" height="20" viewBox="0 0 20 20" fill="none" xmlns="http://www.w3.org/2000/svg">
<path d="M10 1.25C5.16797 1.25 1.25 5.16797 1.25 10C1.25 14.832 5.16797 18.75 10 18.75C14.832 18.75 18.75 14.832 18.75 10C18.75 5.16797 14.832 1.25 10 1.25ZM10 17.2656C5.98828 17.2656 2.73438 14.0117 2.73438 10C2.73438 8.26172 3.3457 6.66406 4.36523 5.41406L14.5859 15.6348C13.3359 16.6543 11.7383 17.2656 10 17.2656ZM15.6348 14.5859L5.41406 4.36523C6.66406 3.3457 8.26172 2.73438 10 2.73438C14.0117 2.73438 17.2656 5.98828 17.2656 10C17.2656 11.7383 16.6543 13.3359 15.6348 14.5859Z" fill="#1A1A1A"/>
</svg>
