<svg width="20" height="20" viewBox="0 0 20 20" fill="none" xmlns="http://www.w3.org/2000/svg">
<path d="M17.1875 2.1875H2.8125C2.4668 2.1875 2.1875 2.4668 2.1875 2.8125V17.1875C2.1875 17.5332 2.4668 17.8125 2.8125 17.8125H17.1875C17.5332 17.8125 17.8125 17.5332 17.8125 17.1875V2.8125C17.8125 2.4668 17.5332 2.1875 17.1875 2.1875ZM13.584 7.14258L9.4707 12.8457C9.41321 12.9259 9.33742 12.9913 9.24962 13.0364C9.16182 13.0815 9.06453 13.1051 8.96582 13.1051C8.86711 13.1051 8.76982 13.0815 8.68202 13.0364C8.59422 12.9913 8.51843 12.9259 8.46094 12.8457L6.02539 9.4707C5.95117 9.36719 6.02539 9.22266 6.15234 9.22266H7.06836C7.26758 9.22266 7.45703 9.31836 7.57422 9.48242L8.96484 11.4121L12.0352 7.1543C12.1523 6.99219 12.3398 6.89453 12.541 6.89453H13.457C13.584 6.89453 13.6582 7.03906 13.584 7.14258Z" fill="#00A6ED"/>
</svg>
