<svg width="20" height="20" viewBox="0 0 20 20" fill="none" xmlns="http://www.w3.org/2000/svg">
<path d="M11.0117 10L16.1386 3.88867C16.2246 3.78711 16.1523 3.63281 16.0195 3.63281H14.4609C14.3691 3.63281 14.2812 3.67383 14.2207 3.74414L9.99216 8.78516L5.76365 3.74414C5.70505 3.67383 5.61716 3.63281 5.52341 3.63281H3.96482C3.832 3.63281 3.75974 3.78711 3.84568 3.88867L8.97263 10L3.84568 16.1113C3.82643 16.134 3.81408 16.1617 3.81009 16.1911C3.80611 16.2205 3.81066 16.2505 3.8232 16.2775C3.83575 16.3044 3.85576 16.3272 3.88086 16.3431C3.90596 16.359 3.9351 16.3674 3.96482 16.3672H5.52341C5.61521 16.3672 5.7031 16.3262 5.76365 16.2559L9.99216 11.2148L14.2207 16.2559C14.2793 16.3262 14.3672 16.3672 14.4609 16.3672H16.0195C16.1523 16.3672 16.2246 16.2129 16.1386 16.1113L11.0117 10Z" fill="#1A1A1A"/>
</svg>
