<svg width="20" height="20" viewBox="0 0 20 20" fill="none" xmlns="http://www.w3.org/2000/svg">
<g clip-path="url(#clip0_918_10367)">
<path d="M15.8333 15H5C4.11595 15 3.2681 14.6488 2.64298 14.0237C2.01786 13.3986 1.66667 12.5507 1.66667 11.6667C1.66667 10.7826 2.01786 9.93478 2.64298 9.30965C3.2681 8.68453 4.11595 8.33334 5 8.33334H5.59167C6.14167 6.40834 7.91667 5.00001 10 5.00001C11.2156 5.00001 12.3814 5.4829 13.2409 6.34244C14.1004 7.20198 14.5833 8.36777 14.5833 9.58334V10H15.8333C16.4964 10 17.1323 10.2634 17.6011 10.7322C18.0699 11.2011 18.3333 11.837 18.3333 12.5C18.3333 13.1631 18.0699 13.7989 17.6011 14.2678C17.1323 14.7366 16.4964 15 15.8333 15ZM16.125 8.35834C15.8434 6.94131 15.0789 5.66585 13.962 4.7495C12.845 3.83314 11.4447 3.33264 10 3.33334C7.59167 3.33334 5.5 4.70001 4.45833 6.69168C3.23282 6.82597 2.10003 7.408 1.27726 8.32612C0.454479 9.24425 -0.000354107 10.4338 2.06851e-07 11.6667C2.06851e-07 12.9928 0.526784 14.2645 1.46447 15.2022C2.40215 16.1399 3.67392 16.6667 5 16.6667H15.8333C16.3805 16.6667 16.9223 16.5589 17.4278 16.3495C17.9334 16.1401 18.3927 15.8332 18.7796 15.4463C19.1665 15.0594 19.4734 14.6 19.6828 14.0945C19.8922 13.589 20 13.0472 20 12.5C20 10.3 18.2917 8.51668 16.125 8.35834Z" fill="#1A1A1A"/>
</g>
<defs>
<clipPath id="clip0_918_10367">
<rect width="20" height="20" fill="white"/>
</clipPath>
</defs>
</svg>
