<svg width="20" height="20" viewBox="0 0 20 20" fill="none" xmlns="http://www.w3.org/2000/svg">
<path d="M17.4609 6.73828C16.5215 5.44922 15.209 4.58789 13.7695 4.19922V4.20117C13.4355 3.83008 13.0586 3.48828 12.6367 3.18359C9.43944 0.859375 4.95115 1.56836 2.61717 4.76563C0.736312 7.36328 0.81639 10.8574 2.73436 13.3398L2.74998 15.9297C2.74998 15.9922 2.75975 16.0547 2.77928 16.1133C2.8828 16.4434 3.23436 16.625 3.56248 16.5215L6.03514 15.7422C6.68944 15.9746 7.36522 16.1074 8.03709 16.1445L8.02733 16.1523C9.76756 17.4199 12.0488 17.8008 14.1406 17.1094L16.623 17.918C16.6855 17.9375 16.75 17.9492 16.8164 17.9492C17.1621 17.9492 17.4414 17.6699 17.4414 17.3242V14.707C19.1621 12.3711 19.207 9.14258 17.4609 6.73828ZM6.30858 14.3555L6.0742 14.2578L4.14061 14.8633L4.12108 12.832L3.96483 12.6562C2.31248 10.6406 2.20311 7.73633 3.74998 5.60547C5.6328 3.02344 9.24217 2.45313 11.8164 4.31641C14.3984 6.19336 14.9707 9.79688 13.1055 12.3633C11.541 14.5098 8.74022 15.3027 6.30858 14.3555ZM16.1719 14.0234L16.0156 14.2188L16.0351 16.25L14.1211 15.6055L13.8867 15.7031C12.793 16.1094 11.6269 16.1426 10.5469 15.8398L10.543 15.8379C11.9863 15.3945 13.2949 14.4961 14.2383 13.2031C15.7305 11.1465 15.9726 8.5625 15.1055 6.35938L15.1172 6.36719C15.5664 6.68945 15.9785 7.0918 16.3281 7.57812C17.7461 9.52344 17.666 12.1719 16.1719 14.0234Z" fill="#1A1A1A"/>
<path d="M11.1914 8.22266C10.7402 8.22266 10.3906 8.57227 10.3906 9.00391C10.3906 9.43555 10.7402 9.78516 11.1914 9.78516C11.6035 9.78516 11.9531 9.43555 11.9531 9.00391C11.9531 8.57227 11.6035 8.22266 11.1914 8.22266ZM5.72266 8.22266C5.27148 8.22266 4.92188 8.57227 4.92188 9.00391C4.92188 9.43555 5.27148 9.78516 5.72266 9.78516C6.13477 9.78516 6.48438 9.43555 6.48438 9.00391C6.48438 8.57227 6.13477 8.22266 5.72266 8.22266Z" fill="#1A1A1A"/>
<path d="M8.45703 8.22266C8.00586 8.22266 7.65625 8.57227 7.65625 9.00391C7.65625 9.43555 8.00586 9.78516 8.45703 9.78516C8.86914 9.78516 9.21875 9.43555 9.21875 9.00391C9.21875 8.57227 8.86914 8.22266 8.45703 8.22266Z" fill="#1A1A1A"/>
</svg>
