<svg width="20" height="20" viewBox="0 0 20 20" fill="none" xmlns="http://www.w3.org/2000/svg">
<path d="M16.25 1.25H3.75C3.4043 1.25 3.125 1.5293 3.125 1.875V18.125C3.125 18.4707 3.4043 18.75 3.75 18.75H16.25C16.5957 18.75 16.875 18.4707 16.875 18.125V1.875C16.875 1.5293 16.5957 1.25 16.25 1.25ZM4.53125 2.65625H15.4688V6.71875H4.53125V2.65625ZM15.4688 12.0312H4.53125V7.96875H15.4688V12.0312ZM15.4688 17.3438H4.53125V13.2812H15.4688V17.3438ZM5.9375 4.6875C5.9375 4.8947 6.01981 5.09341 6.16632 5.23993C6.31284 5.38644 6.51155 5.46875 6.71875 5.46875C6.92595 5.46875 7.12466 5.38644 7.27118 5.23993C7.41769 5.09341 7.5 4.8947 7.5 4.6875C7.5 4.4803 7.41769 4.28159 7.27118 4.13507C7.12466 3.98856 6.92595 3.90625 6.71875 3.90625C6.51155 3.90625 6.31284 3.98856 6.16632 4.13507C6.01981 4.28159 5.9375 4.4803 5.9375 4.6875ZM5.9375 10C5.9375 10.2072 6.01981 10.4059 6.16632 10.5524C6.31284 10.6989 6.51155 10.7812 6.71875 10.7812C6.92595 10.7812 7.12466 10.6989 7.27118 10.5524C7.41769 10.4059 7.5 10.2072 7.5 10C7.5 9.7928 7.41769 9.59409 7.27118 9.44757C7.12466 9.30106 6.92595 9.21875 6.71875 9.21875C6.51155 9.21875 6.31284 9.30106 6.16632 9.44757C6.01981 9.59409 5.9375 9.7928 5.9375 10ZM5.9375 15.3125C5.9375 15.5197 6.01981 15.7184 6.16632 15.8649C6.31284 16.0114 6.51155 16.0938 6.71875 16.0938C6.92595 16.0938 7.12466 16.0114 7.27118 15.8649C7.41769 15.7184 7.5 15.5197 7.5 15.3125C7.5 15.1053 7.41769 14.9066 7.27118 14.7601C7.12466 14.6136 6.92595 14.5312 6.71875 14.5312C6.51155 14.5312 6.31284 14.6136 6.16632 14.7601C6.01981 14.9066 5.9375 15.1053 5.9375 15.3125Z" fill="#1A1A1A"/>
</svg>
