<svg width="20" height="20" viewBox="0 0 20 20" fill="none" xmlns="http://www.w3.org/2000/svg">
<path d="M16.6914 5.63867C16.8086 5.75586 16.875 5.91406 16.875 6.08008V18.125C16.875 18.4707 16.5957 18.75 16.25 18.75H3.75C3.4043 18.75 3.125 18.4707 3.125 18.125V1.875C3.125 1.5293 3.4043 1.25 3.75 1.25H12.0449C12.2109 1.25 12.3711 1.31641 12.4883 1.43359L16.6914 5.63867ZM15.4336 6.36719L11.7578 2.69141V6.36719H15.4336ZM11.2371 9.33281L10.0414 11.3309L8.83398 9.33203C8.81311 9.29751 8.78368 9.26897 8.74854 9.24916C8.7134 9.22934 8.67374 9.21894 8.6334 9.21895H7.88262C7.83838 9.21895 7.79504 9.23148 7.75762 9.25508C7.73156 9.27149 7.70899 9.29289 7.69121 9.31803C7.67342 9.34317 7.66076 9.37158 7.65396 9.40162C7.64716 9.43165 7.64634 9.46274 7.65156 9.49309C7.65678 9.52345 7.66793 9.55247 7.68437 9.57852L9.29258 12.1258L7.66269 14.7191C7.6392 14.7565 7.62674 14.7998 7.62676 14.8439C7.62676 14.9061 7.65145 14.9657 7.69541 15.0097C7.73936 15.0536 7.79897 15.0783 7.86113 15.0783H8.53418C8.57415 15.0783 8.61346 15.0681 8.64836 15.0486C8.68327 15.0291 8.71261 15.001 8.73359 14.967L9.9582 12.9852L11.175 14.9666C11.196 15.0008 11.2254 15.029 11.2603 15.0485C11.2953 15.0681 11.3347 15.0783 11.3748 15.0783H12.1068C12.1517 15.0783 12.1956 15.0654 12.2334 15.0412C12.2593 15.0246 12.2817 15.003 12.2993 14.9778C12.3168 14.9525 12.3293 14.924 12.3358 14.8939C12.3424 14.8639 12.343 14.8328 12.3375 14.8025C12.3321 14.7722 12.3207 14.7433 12.3041 14.7174L10.6668 12.1676L12.3328 9.58027C12.3571 9.5424 12.37 9.49832 12.3699 9.45332C12.3699 9.39116 12.3452 9.33155 12.3013 9.28759C12.2573 9.24364 12.1977 9.21895 12.1355 9.21895H11.4383C11.3978 9.21897 11.358 9.2295 11.3228 9.24949C11.2875 9.26947 11.2581 9.29825 11.2373 9.33301L11.2371 9.33281Z" fill="#02957A"/>
</svg>
