<svg width="20" height="20" viewBox="0 0 20 20" fill="none" xmlns="http://www.w3.org/2000/svg">
<path d="M18.4023 10.4961C17.7157 9.04962 16.8987 7.86994 15.9512 6.95704L14.9574 7.95079C15.7678 8.72521 16.4736 9.73829 17.084 11C15.459 14.3633 13.1523 15.961 9.99999 15.961C9.05377 15.961 8.18222 15.8152 7.38534 15.5238L6.30858 16.6006C7.41536 17.1117 8.64582 17.3672 9.99999 17.3672C13.7539 17.3672 16.5547 15.4121 18.4023 11.502C18.4766 11.3447 18.5151 11.173 18.5151 10.999C18.5151 10.8251 18.4766 10.6534 18.4023 10.4961ZM17.1607 4.23361L16.3281 3.40001C16.3136 3.38549 16.2964 3.37396 16.2774 3.3661C16.2584 3.35823 16.2381 3.35419 16.2176 3.35419C16.197 3.35419 16.1767 3.35823 16.1577 3.3661C16.1388 3.37396 16.1215 3.38549 16.107 3.40001L13.9709 5.53517C12.7932 4.93361 11.4695 4.63283 9.99999 4.63283C6.24608 4.63283 3.4453 6.5879 1.59765 10.4981C1.52338 10.6553 1.48486 10.8271 1.48486 11.001C1.48486 11.1749 1.52338 11.3467 1.59765 11.5039C2.3358 13.0586 3.22447 14.3048 4.26366 15.2424L2.19687 17.3086C2.16759 17.3379 2.15114 17.3776 2.15114 17.4191C2.15114 17.4605 2.16759 17.5002 2.19687 17.5295L3.03065 18.3633C3.05995 18.3926 3.09968 18.409 3.1411 18.409C3.18253 18.409 3.22225 18.3926 3.25155 18.3633L17.1607 4.4547C17.1753 4.44019 17.1868 4.42296 17.1946 4.40399C17.2025 4.38502 17.2066 4.36469 17.2066 4.34415C17.2066 4.32362 17.2025 4.30329 17.1946 4.28432C17.1868 4.26535 17.1753 4.24812 17.1607 4.23361ZM2.91601 11C4.54296 7.63673 6.8496 6.03908 9.99999 6.03908C11.0652 6.03908 12.0338 6.22189 12.9125 6.59357L11.5394 7.96661C10.8892 7.61967 10.1446 7.49091 9.41563 7.59932C8.68662 7.70774 8.01176 8.04759 7.4906 8.56875C6.96944 9.0899 6.62959 9.76476 6.52117 10.4938C6.41276 11.2228 6.54152 11.9673 6.88847 12.6176L5.25917 14.2469C4.35741 13.451 3.58007 12.3727 2.91601 11ZM7.73437 11C7.73471 10.6556 7.81629 10.3161 7.97247 10.0092C8.12866 9.70223 8.35505 9.43645 8.63326 9.23343C8.91146 9.03041 9.23363 8.89588 9.5736 8.84076C9.91356 8.78564 10.2617 8.8115 10.5898 8.91622L7.83808 11.668C7.7691 11.452 7.73412 11.2267 7.73437 11Z" fill="#1A1A1A"/>
<path d="M9.92187 13.1875C9.85429 13.1875 9.78769 13.1844 9.72167 13.1783L8.69003 14.21C9.31052 14.4476 9.98656 14.5004 10.6364 14.362C11.2863 14.2236 11.8821 13.8999 12.352 13.4301C12.8218 12.9603 13.1455 12.3644 13.2839 11.7145C13.4223 11.0647 13.3695 10.3886 13.1318 9.76816L12.1002 10.7998C12.1062 10.8658 12.1094 10.9324 12.1094 11C12.1095 11.2873 12.053 11.5718 11.9432 11.8373C11.8333 12.1028 11.6722 12.344 11.469 12.5471C11.2659 12.7503 11.0246 12.9114 10.7592 13.0213C10.4937 13.1312 10.2092 13.1876 9.92187 13.1875Z" fill="#1A1A1A"/>
</svg>
