<svg width="20" height="20" viewBox="0 0 20 20" fill="none" xmlns="http://www.w3.org/2000/svg">
<g clip-path="url(#clip0_203_1647)">
<path d="M18.6662 20.0001C19.2757 20.0001 19.77 19.5059 19.77 18.8962V1.10383C19.77 0.494141 19.2757 0 18.6662 0H0.873848C0.264082 0 -0.22998 0.494141 -0.22998 1.10383V18.8962C-0.22998 19.5059 0.264082 20.0001 0.873848 20.0001H18.6662Z" fill="#395185"/>
<path d="M13.5696 20.0001V12.255H16.1694L16.5586 9.23664H13.5696V7.30946C13.5696 6.43555 13.8123 5.84 15.0655 5.84L16.6639 5.8393V3.13969C16.3873 3.10289 15.4386 3.02071 14.3348 3.02071C12.0303 3.02071 10.4527 4.42735 10.4527 7.01063V9.23664H7.84625V12.255H10.4527V20.0001H13.5696Z" fill="white"/>
</g>
<defs>
<clipPath id="clip0_203_1647">
<rect width="20" height="20" fill="white"/>
</clipPath>
</defs>
</svg>
