<svg width="20" height="20" viewBox="0 0 20 20" fill="none" xmlns="http://www.w3.org/2000/svg">
<path d="M19.8067 10.1871C19.8067 9.3677 19.7402 8.76977 19.5963 8.14969H10.2397V11.848H15.7318C15.6211 12.7671 15.0232 14.1512 13.6944 15.0813L13.6758 15.2051L16.6342 17.4969L16.8392 17.5174C18.7215 15.7789 19.8067 13.2211 19.8067 10.1871Z" fill="#4285F4"/>
<path d="M10.2396 19.9313C12.9303 19.9313 15.1892 19.0454 16.8391 17.5174L13.6944 15.0813C12.8529 15.6682 11.7234 16.0779 10.2396 16.0779C7.6043 16.0779 5.36759 14.3395 4.57026 11.9366L4.45339 11.9466L1.3772 14.3273L1.33698 14.4391C2.97575 17.6945 6.34194 19.9313 10.2396 19.9313Z" fill="#34A853"/>
<path d="M4.57031 11.9366C4.35993 11.3166 4.23817 10.6521 4.23817 9.96565C4.23817 9.27908 4.35993 8.61473 4.55924 7.99466L4.55367 7.8626L1.43893 5.44366L1.33702 5.49214C0.661605 6.84305 0.274048 8.36008 0.274048 9.96565C0.274048 11.5712 0.661605 13.0882 1.33702 14.4391L4.57031 11.9366Z" fill="#FBBC05"/>
<path d="M10.2396 3.85336C12.1109 3.85336 13.3732 4.66168 14.093 5.33718L16.9055 2.59107C15.1782 0.985496 12.9303 0 10.2396 0C6.34194 0 2.97575 2.23672 1.33698 5.49214L4.55919 7.99466C5.36759 5.59183 7.6043 3.85336 10.2396 3.85336Z" fill="#EB4335"/>
</svg>
