<svg width="20" height="20" viewBox="0 0 20 20" fill="none" xmlns="http://www.w3.org/2000/svg">
<path d="M10.4707 5.33203H9.53126C9.44532 5.33203 9.37501 5.40235 9.37501 5.48828V10.8652C9.37501 10.916 9.39844 10.9629 9.43946 10.9922L12.668 13.3496C12.7383 13.4004 12.8359 13.3867 12.8867 13.3164L13.4453 12.5547C13.4981 12.4824 13.4824 12.3848 13.4121 12.3359L10.627 10.3223V5.48828C10.627 5.40235 10.5566 5.33203 10.4707 5.33203ZM14.7637 6.80078L17.8262 7.54883C17.9238 7.57227 18.0195 7.49805 18.0195 7.39844L18.0352 4.24414C18.0352 4.11328 17.8848 4.03906 17.7832 4.1211L14.7051 6.52539C14.6818 6.54339 14.6641 6.56759 14.654 6.5952C14.6439 6.62282 14.6417 6.65273 14.6479 6.6815C14.654 6.71027 14.6681 6.73672 14.6886 6.75782C14.7091 6.77893 14.7351 6.79382 14.7637 6.80078ZM18.0391 12.6816L16.9316 12.3008C16.893 12.2875 16.8508 12.2899 16.8139 12.3075C16.777 12.325 16.7485 12.3562 16.7344 12.3945C16.6973 12.4941 16.6582 12.5918 16.6172 12.6895C16.2695 13.5117 15.7715 14.252 15.1348 14.8867C14.5051 15.5183 13.7589 16.0218 12.9375 16.3691C12.0866 16.7289 11.1719 16.9136 10.2481 16.9121C9.31446 16.9121 8.41016 16.7305 7.5586 16.3691C6.73719 16.0218 5.99098 15.5183 5.36133 14.8867C4.72657 14.252 4.22852 13.5117 3.87891 12.6895C3.52113 11.8381 3.33783 10.9235 3.33985 10C3.33985 9.06641 3.52149 8.16016 3.88282 7.3086C4.23048 6.48633 4.72852 5.7461 5.36524 5.11133C5.99489 4.47973 6.7411 3.97628 7.56251 3.62891C8.41016 3.26758 9.31641 3.08594 10.25 3.08594C11.1836 3.08594 12.0879 3.26758 12.9395 3.62891C13.7609 3.97628 14.5071 4.47973 15.1367 5.11133C15.3359 5.3125 15.5234 5.52149 15.6953 5.74219L16.8633 4.82813C15.3262 2.86328 12.9336 1.59961 10.2461 1.60156C5.56641 1.60352 1.8086 5.4043 1.85548 10.0859C1.90235 14.6855 5.64258 18.3984 10.25 18.3984C13.8731 18.3984 16.959 16.1016 18.1348 12.8848C18.1641 12.8027 18.1211 12.7109 18.0391 12.6816Z" fill="#1A1A1A"/>
</svg>
