<svg width="20" height="20" viewBox="0 0 20 20" fill="none" xmlns="http://www.w3.org/2000/svg">
<path d="M18.125 3.125H1.875C1.5293 3.125 1.25 3.4043 1.25 3.75V16.25C1.25 16.5957 1.5293 16.875 1.875 16.875H18.125C18.4707 16.875 18.75 16.5957 18.75 16.25V3.75C18.75 3.4043 18.4707 3.125 18.125 3.125ZM17.3438 15.4688H2.65625V14.6895L5.36133 11.4805L8.29297 14.957L12.8535 9.55078L17.3438 14.875V15.4688ZM17.3438 12.9336L12.9727 7.75C12.9102 7.67578 12.7969 7.67578 12.7344 7.75L8.29297 13.0156L5.48047 9.68164C5.41797 9.60742 5.30469 9.60742 5.24219 9.68164L2.65625 12.748V4.53125H17.3438V12.9336ZM5.9375 8.90625C6.16321 8.90625 6.38671 8.86179 6.59524 8.77542C6.80377 8.68904 6.99324 8.56244 7.15284 8.40284C7.31244 8.24324 7.43904 8.05377 7.52542 7.84524C7.61179 7.63671 7.65625 7.41321 7.65625 7.1875C7.65625 6.96179 7.61179 6.73829 7.52542 6.52976C7.43904 6.32123 7.31244 6.13176 7.15284 5.97216C6.99324 5.81256 6.80377 5.68596 6.59524 5.59958C6.38671 5.51321 6.16321 5.46875 5.9375 5.46875C5.48166 5.46875 5.04449 5.64983 4.72216 5.97216C4.39983 6.29449 4.21875 6.73166 4.21875 7.1875C4.21875 7.64334 4.39983 8.08051 4.72216 8.40284C5.04449 8.72517 5.48166 8.90625 5.9375 8.90625ZM5.9375 6.64062C6.24023 6.64062 6.48438 6.88477 6.48438 7.1875C6.48438 7.49023 6.24023 7.73438 5.9375 7.73438C5.63477 7.73438 5.39062 7.49023 5.39062 7.1875C5.39062 6.88477 5.63477 6.64062 5.9375 6.64062Z" fill="#1A1A1A"/>
</svg>
