<svg width="20" height="20" viewBox="0 0 20 20" fill="none" xmlns="http://www.w3.org/2000/svg">
<path d="M17.6562 14.5898H2.34375C2.25781 14.5898 2.1875 14.6602 2.1875 14.7461V15.8398C2.1875 15.9258 2.25781 15.9961 2.34375 15.9961H17.6562C17.7422 15.9961 17.8125 15.9258 17.8125 15.8398V14.7461C17.8125 14.6602 17.7422 14.5898 17.6562 14.5898ZM3.23633 12.1445L4.01172 12.916C4.07227 12.9766 4.17188 12.9766 4.23242 12.916L8.81641 8.34765L10.7227 10.248C10.8401 10.3644 10.9987 10.4297 11.1641 10.4297C11.3294 10.4297 11.488 10.3644 11.6055 10.248L16.7656 5.10742C16.8262 5.04687 16.8262 4.94726 16.7656 4.88671L15.9902 4.11328C15.9609 4.0842 15.9212 4.06789 15.8799 4.06789C15.8386 4.06789 15.7989 4.0842 15.7695 4.11328L11.166 8.70312L9.25781 6.80273C9.14037 6.68637 8.98173 6.62109 8.81641 6.62109C8.65108 6.62109 8.49244 6.68637 8.375 6.80273L3.23633 11.9238C3.22172 11.9382 3.21012 11.9554 3.2022 11.9744C3.19428 11.9933 3.19021 12.0136 3.19021 12.0342C3.19021 12.0547 3.19428 12.075 3.2022 12.094C3.21012 12.1129 3.22172 12.1301 3.23633 12.1445Z" fill="#1A1A1A"/>
</svg>
