<svg width="20" height="20" viewBox="0 0 20 20" fill="none" xmlns="http://www.w3.org/2000/svg">
<path d="M9.75391 5.50781C7.26953 5.50781 5.26562 7.51172 5.26562 9.99609C5.26562 12.4805 7.26953 14.4844 9.75391 14.4844C12.2383 14.4844 14.2422 12.4805 14.2422 9.99609C14.2422 7.51172 12.2383 5.50781 9.75391 5.50781ZM9.75391 12.9141C8.14844 12.9141 6.83594 11.6055 6.83594 9.99609C6.83594 8.38672 8.14453 7.07812 9.75391 7.07812C11.3633 7.07812 12.6719 8.38672 12.6719 9.99609C12.6719 11.6055 11.3594 12.9141 9.75391 12.9141ZM15.4727 5.32422C15.4727 5.90625 15.0039 6.37109 14.4258 6.37109C13.8438 6.37109 13.3789 5.90234 13.3789 5.32422C13.3789 4.74609 13.8477 4.27734 14.4258 4.27734C15.0039 4.27734 15.4727 4.74609 15.4727 5.32422ZM18.4453 6.38672C18.3789 4.98438 18.0586 3.74219 17.0312 2.71875C16.0078 1.69531 14.7656 1.375 13.3633 1.30469C11.918 1.22266 7.58594 1.22266 6.14062 1.30469C4.74219 1.37109 3.5 1.69141 2.47266 2.71484C1.44531 3.73828 1.12891 4.98047 1.05859 6.38281C0.976562 7.82812 0.976562 12.1602 1.05859 13.6055C1.125 15.0078 1.44531 16.25 2.47266 17.2734C3.5 18.2969 4.73828 18.6172 6.14062 18.6875C7.58594 18.7695 11.918 18.7695 13.3633 18.6875C14.7656 18.6211 16.0078 18.3008 17.0312 17.2734C18.0547 16.25 18.375 15.0078 18.4453 13.6055C18.5273 12.1602 18.5273 7.83203 18.4453 6.38672ZM16.5781 15.1562C16.2734 15.9219 15.6836 16.5117 14.9141 16.8203C13.7617 17.2773 11.0273 17.1719 9.75391 17.1719C8.48047 17.1719 5.74219 17.2734 4.59375 16.8203C3.82812 16.5156 3.23828 15.9258 2.92969 15.1562C2.47266 14.0039 2.57813 11.2695 2.57813 9.99609C2.57813 8.72266 2.47656 5.98438 2.92969 4.83594C3.23438 4.07031 3.82422 3.48047 4.59375 3.17187C5.74609 2.71484 8.48047 2.82031 9.75391 2.82031C11.0273 2.82031 13.7656 2.71875 14.9141 3.17187C15.6797 3.47656 16.2695 4.06641 16.5781 4.83594C17.0352 5.98828 16.9297 8.72266 16.9297 9.99609C16.9297 11.2695 17.0352 14.0078 16.5781 15.1562Z" fill="#1A1A1A"/>
</svg>
