<svg width="20" height="20" viewBox="0 0 20 20" fill="none" xmlns="http://www.w3.org/2000/svg">
<path d="M16.6914 5.63867L12.4883 1.43359C12.3711 1.31641 12.2109 1.25 12.0449 1.25H3.75C3.4043 1.25 3.125 1.5293 3.125 1.875V18.125C3.125 18.4707 3.4043 18.75 3.75 18.75H16.25C16.5957 18.75 16.875 18.4707 16.875 18.125V6.08008C16.875 5.91406 16.8086 5.75586 16.6914 5.63867ZM7.8125 7.85156C8.24414 7.85156 8.59375 8.20117 8.59375 8.63281C8.59375 9.06445 8.24414 9.41406 7.8125 9.41406C7.38086 9.41406 7.03125 9.06445 7.03125 8.63281C7.03125 8.20117 7.38086 7.85156 7.8125 7.85156ZM13.5938 13.5938H6.40625C6.27539 13.5938 6.20313 13.4434 6.2832 13.3418L8.23242 10.8574C8.24704 10.8387 8.26571 10.8236 8.28703 10.8133C8.30835 10.8029 8.33175 10.7975 8.35547 10.7975C8.37918 10.7975 8.40259 10.8029 8.42391 10.8133C8.44522 10.8236 8.4639 10.8387 8.47852 10.8574L9.28125 11.8809L10.8008 9.94336C10.8154 9.92468 10.8341 9.90958 10.8554 9.89919C10.8767 9.88881 10.9001 9.88341 10.9238 9.88341C10.9475 9.88341 10.9709 9.88881 10.9923 9.89919C11.0136 9.90958 11.0323 9.92468 11.0469 9.94336L13.7129 13.3418C13.7969 13.4434 13.7227 13.5938 13.5938 13.5938ZM11.7578 6.36719V2.69141L15.4336 6.36719H11.7578Z" fill="#858585"/>
</svg>
