<svg width="20" height="20" viewBox="0 0 20 20" fill="none" xmlns="http://www.w3.org/2000/svg">
<path d="M18.125 3H13.6562C12.6973 3 11.7598 3.27539 10.9531 3.79492L10 4.40625L9.04688 3.79492C8.24104 3.27549 7.30249 2.99949 6.34375 3H1.875C1.5293 3 1.25 3.2793 1.25 3.625V14.7188C1.25 15.0645 1.5293 15.3438 1.875 15.3438H6.34375C7.30273 15.3438 8.24023 15.6191 9.04688 16.1387L9.91406 16.6973C9.93945 16.7129 9.96875 16.7227 9.99805 16.7227C10.0273 16.7227 10.0566 16.7148 10.082 16.6973L10.9492 16.1387C11.7578 15.6191 12.6973 15.3438 13.6562 15.3438H18.125C18.4707 15.3438 18.75 15.0645 18.75 14.7188V3.625C18.75 3.2793 18.4707 3 18.125 3ZM6.34375 13.9375H2.65625V4.40625H6.34375C7.03516 4.40625 7.70703 4.60352 8.28711 4.97656L9.24023 5.58789L9.375 5.67578V14.6992C8.44531 14.1992 7.40625 13.9375 6.34375 13.9375ZM17.3438 13.9375H13.6562C12.5938 13.9375 11.5547 14.1992 10.625 14.6992V5.67578L10.7598 5.58789L11.7129 4.97656C12.293 4.60352 12.9648 4.40625 13.6562 4.40625H17.3438V13.9375ZM7.75195 6.90625H4.12305C4.04688 6.90625 3.98438 6.97266 3.98438 7.05273V7.93164C3.98438 8.01172 4.04688 8.07813 4.12305 8.07813H7.75C7.82617 8.07813 7.88867 8.01172 7.88867 7.93164V7.05273C7.89062 6.97266 7.82812 6.90625 7.75195 6.90625ZM12.1094 7.05273V7.93164C12.1094 8.01172 12.1719 8.07813 12.248 8.07813H15.875C15.9512 8.07813 16.0137 8.01172 16.0137 7.93164V7.05273C16.0137 6.97266 15.9512 6.90625 15.875 6.90625H12.248C12.1719 6.90625 12.1094 6.97266 12.1094 7.05273ZM7.75195 9.64063H4.12305C4.04688 9.64063 3.98438 9.70703 3.98438 9.78711V10.666C3.98438 10.7461 4.04688 10.8125 4.12305 10.8125H7.75C7.82617 10.8125 7.88867 10.7461 7.88867 10.666V9.78711C7.89062 9.70703 7.82812 9.64063 7.75195 9.64063ZM15.877 9.64063H12.248C12.1719 9.64063 12.1094 9.70703 12.1094 9.78711V10.666C12.1094 10.7461 12.1719 10.8125 12.248 10.8125H15.875C15.9512 10.8125 16.0137 10.7461 16.0137 10.666V9.78711C16.0156 9.70703 15.9531 9.64063 15.877 9.64063Z" fill="#1A1A1A"/>
</svg>
