<svg width="20" height="20" viewBox="0 0 20 20" fill="none" xmlns="http://www.w3.org/2000/svg">
<path d="M7.96875 8.63281H17.3438C17.4297 8.63281 17.5 8.5625 17.5 8.47656V7.38281C17.5 7.29688 17.4297 7.22656 17.3438 7.22656H7.96875C7.88281 7.22656 7.8125 7.29688 7.8125 7.38281V8.47656C7.8125 8.5625 7.88281 8.63281 7.96875 8.63281ZM7.8125 12.6172C7.8125 12.7031 7.88281 12.7734 7.96875 12.7734H17.3438C17.4297 12.7734 17.5 12.7031 17.5 12.6172V11.5234C17.5 11.4375 17.4297 11.3672 17.3438 11.3672H7.96875C7.88281 11.3672 7.8125 11.4375 7.8125 11.5234V12.6172ZM17.6562 3.125H2.34375C2.25781 3.125 2.1875 3.19531 2.1875 3.28125V4.375C2.1875 4.46094 2.25781 4.53125 2.34375 4.53125H17.6562C17.7422 4.53125 17.8125 4.46094 17.8125 4.375V3.28125C17.8125 3.19531 17.7422 3.125 17.6562 3.125ZM17.6562 15.4688H2.34375C2.25781 15.4688 2.1875 15.5391 2.1875 15.625V16.7188C2.1875 16.8047 2.25781 16.875 2.34375 16.875H17.6562C17.7422 16.875 17.8125 16.8047 17.8125 16.7188V15.625C17.8125 15.5391 17.7422 15.4688 17.6562 15.4688ZM2.78125 12.541L5.83398 10.1367C5.85454 10.1206 5.87116 10.0999 5.88258 10.0764C5.89401 10.0529 5.89994 10.0271 5.89994 10.001C5.89994 9.97483 5.89401 9.94903 5.88258 9.92552C5.87116 9.902 5.85454 9.88139 5.83398 9.86523L2.78125 7.45898C2.66797 7.36914 2.5 7.44922 2.5 7.59375V12.4043C2.49999 12.4369 2.50916 12.4689 2.52646 12.4965C2.54376 12.5242 2.56849 12.5464 2.59783 12.5607C2.62717 12.575 2.65993 12.5807 2.69237 12.5772C2.7248 12.5737 2.7556 12.5612 2.78125 12.541Z" fill="#1A1A1A"/>
</svg>
