<svg width="144" height="31" viewBox="0 0 144 31" fill="none" xmlns="http://www.w3.org/2000/svg">
<path d="M0.0805664 26.152C1.68936 26.152 8.46947 16.5804 12.4919 9.6296C16.077 3.4348 19.8464 0 23.4089 0C26.167 0 29.7295 2.1084 33.0621 9.6296C28.9251 3.818 26.7677 2.7892 23.2754 2.7892C19.3272 2.7892 17.3312 4.57079 13.3088 10.382C8.66956 17.086 2.40178 26.09 0.0805664 26.152Z" fill="#2C2E2B"/>
<path d="M21.6846 26.266C21.6846 26.266 28.6946 10.4248 37.3134 10.4248C41.4524 10.4248 45.6172 15.0384 49.8098 19.644C54.8194 25.1476 58.9192 30.0256 62.021 30.0256C54.0981 30.0256 47.0755 13.1028 36.9399 13.1028C28.8539 13.1028 21.6846 26.266 21.6846 26.266Z" fill="#2C2E2B"/>
<path d="M86.6122 23.5576C86.6122 21.6716 86.6122 13.6465 86.4097 7.10956C86.3141 4.01948 85.596 1.91521 84.3918 0.736799C83.491 -0.144053 82.0597 -0.342165 80.956 0.736799C79.7526 1.91521 79.0341 4.01948 78.9389 7.10956C78.7368 13.6461 78.7368 21.4743 78.7368 23.3603C78.7368 25.2826 78.281 27.5724 76.7085 29.7871C76.7085 29.7871 80.2972 28.7674 80.2972 22.1432C80.2972 21.8875 80.2976 21.848 80.2976 21.8216C80.2936 21.6629 80.4606 21.1266 81.0024 21.1266C81.2448 21.1266 83.2546 21.1266 84.3478 21.1266C84.7666 21.1266 85.0494 21.4944 85.0518 21.8216C85.053 21.9404 85.0518 22.0477 85.0518 22.1432C85.0518 28.7674 88.6405 29.7871 88.6405 29.7871C87.108 27.8774 86.6122 25.4804 86.6122 23.5576ZM81.029 19.6001C80.6179 19.6001 80.3037 19.3136 80.3037 18.9103C80.3037 15.9165 80.363 11.5186 80.4981 7.15574C80.6502 2.24593 82.307 1.48269 82.6737 1.48269C83.0404 1.48269 84.6976 2.24593 84.8501 7.15574C84.9852 11.5209 85.0441 15.9208 85.0441 18.9154C85.0441 19.2165 84.8001 19.6001 84.3297 19.6001H81.029Z" fill="#2C2E2B"/>
<path d="M73.7745 19.6408C73.0842 19.5409 72.0043 19.269 71.2992 18.5259C71.2499 18.4746 71.2168 18.1865 71.2471 18.0973C71.7481 16.6079 72.3811 15.051 73.1694 13.1855C75.8968 6.72596 76.0505 1.281 76.0557 1.05289C76.0646 0.661401 75.7479 0.337396 75.3478 0.328319C74.9476 0.319242 74.6164 0.629452 74.6075 1.02134C74.6067 1.07461 74.4558 6.42681 71.83 12.6441C71.3516 13.7779 70.9288 14.8012 70.5561 15.7642C70.4613 16.0092 70.1244 15.9903 70.0554 15.7365C69.4991 13.6994 69.3333 11.4507 69.2026 9.67673C69.1837 9.41942 69.0009 6.85698 68.9755 6.62138C68.2679 0.09589 64.5283 0.353201 64.5283 0.353201C65.3295 0.72338 67.0125 2.06359 67.4474 6.76778C67.4688 7.0022 67.6273 9.53228 67.6463 9.78604C67.8322 12.3149 68.1134 15.748 69.4072 18.4628C69.4665 18.5875 69.4806 18.8681 69.4334 19.0322C68.6266 21.8461 68.2474 24.6674 68.1719 29.0926C68.1651 29.4833 68.4842 29.8065 68.8843 29.8124C68.888 29.8124 68.8924 29.8124 68.896 29.8124C69.291 29.8124 69.6137 29.5034 69.6202 29.1155C69.6859 25.2862 69.999 22.7009 70.6085 20.2422C70.6323 20.1435 70.7376 20.0753 70.8389 20.1471C71.7489 20.7868 72.8164 21.0426 73.5486 21.1495C74.0439 21.2229 74.4159 20.8235 74.432 20.4312C74.449 20.039 74.1605 19.6968 73.7745 19.6408Z" fill="#2C2E2B"/>
<path d="M99.861 6.38577C99.861 2.75147 100.586 1.66106 101.743 0.338597C101.743 0.338597 98.1748 0.706801 98.3003 7.33134C98.3285 8.78325 98.3951 13.317 98.3951 18.2832C98.3951 18.5354 98.0034 18.7726 97.8178 18.3945C96.6487 16.0045 94.858 12.1752 92.9938 7.95607C90.9945 3.43066 90.9417 1.0683 90.9413 1.02292C90.9401 0.633007 90.6161 0.316895 90.2172 0.316895C89.817 0.316895 89.4922 0.634593 89.4922 1.02569C89.4922 1.11527 89.5108 2.92908 90.8057 6.41381C90.8445 6.5172 90.9223 7.01721 90.9215 7.16442C90.88 13.5818 91.0038 21.9412 91.0038 23.6796C91.0038 27.3135 90.2797 28.4043 89.1211 29.7264C89.1211 29.7264 92.6901 29.3586 92.5642 22.7348C92.5364 21.279 92.4694 16.7279 92.4694 11.7471C92.4694 11.4144 92.9139 11.3193 93.0535 11.6184C95.0149 15.8277 96.6612 19.3282 97.3902 20.8188C97.6387 21.3259 97.8735 21.7723 98.1002 22.204C99.1506 24.2025 99.8453 25.523 99.8453 29.1032C99.8453 29.4947 100.169 29.8116 100.569 29.8116C100.97 29.8116 101.294 29.4947 101.294 29.1032C101.294 26.1079 100.804 24.4677 100.098 22.9578C100.048 22.8508 99.9466 22.3706 99.947 22.2348C99.9764 15.9181 99.861 8.06381 99.861 6.38577Z" fill="#2C2E2B"/>
<path d="M115.947 19.5087C115.256 19.4089 114.176 19.1358 113.471 18.3931C113.422 18.3418 113.389 18.0537 113.419 17.9641C113.92 16.4751 114.553 14.9182 115.341 13.0523C118.069 6.59354 118.222 1.149 118.228 0.919707C118.236 0.529006 117.919 0.204194 117.519 0.195907C117.119 0.18604 116.788 0.497828 116.779 0.888923C116.778 0.941806 116.627 6.2944 114.001 12.5117C113.523 13.6455 113.1 14.6684 112.728 15.6321C112.633 15.876 112.296 15.8579 112.227 15.6041C111.671 13.5666 111.505 11.3183 111.374 9.54353C111.355 9.2874 111.173 6.72455 111.147 6.48855C110.439 -0.0365379 106.7 0.220379 106.7 0.220379C107.501 0.591742 109.184 1.93038 109.619 6.63575C109.641 6.86938 109.799 9.39909 109.818 9.65324C110.004 12.1825 110.285 15.6148 111.579 18.3295C111.638 18.4543 111.652 18.7348 111.605 18.899C110.798 21.714 110.419 24.5346 110.343 28.9594C110.336 29.3509 110.655 29.6733 111.056 29.68C111.059 29.6808 111.064 29.6808 111.068 29.6808C111.462 29.6808 111.785 29.371 111.792 28.983C111.857 25.1538 112.17 22.5681 112.78 20.1094C112.804 20.0111 112.909 19.9429 113.01 20.0143C113.92 20.654 114.987 20.9093 115.72 21.0167C116.216 21.0901 116.587 20.6907 116.603 20.298C116.621 19.9065 116.333 19.5636 115.947 19.5087Z" fill="#2C2E2B"/>
<path d="M142.033 6.25326C142.033 2.61817 142.758 1.52817 143.915 0.206501C143.915 0.206501 140.347 0.573909 140.472 7.19845C140.5 8.65114 140.567 13.1837 140.567 18.1507C140.567 18.4021 140.176 18.64 139.99 18.262C138.821 15.872 137.029 12.0423 135.165 7.82356C133.166 3.29815 133.113 0.935797 133.113 0.890412C133.111 0.500501 132.788 0.183594 132.389 0.183594C131.988 0.183594 131.664 0.501289 131.664 0.893568C131.664 0.981969 131.682 2.79696 132.977 6.2813C133.016 6.38391 133.094 6.88432 133.093 7.03152C133.051 13.4485 133.175 21.8083 133.175 23.5463C133.175 27.181 132.451 28.271 131.292 29.5939C131.292 29.5939 134.862 29.2253 134.736 22.6019C134.707 21.1457 134.641 16.5954 134.641 11.6149C134.641 11.2815 135.086 11.1867 135.225 11.4851C137.186 15.6956 138.833 19.1961 139.562 20.6855C139.81 21.193 140.044 21.639 140.272 22.0707C141.322 24.0692 142.017 25.3901 142.017 28.9695C142.017 29.361 142.341 29.6787 142.741 29.6787C143.141 29.6787 143.465 29.361 143.465 28.9695C143.465 25.975 142.976 24.334 142.27 22.8245C142.219 22.7176 142.118 22.2377 142.118 22.1023C142.149 15.7856 142.033 7.9313 142.033 6.25326Z" fill="#2C2E2B"/>
<path d="M120.908 6.4431C120.908 8.32832 120.908 16.3542 121.111 22.8912C121.206 25.9809 121.924 28.0859 123.128 29.2636C124.029 30.1444 125.461 30.3417 126.563 29.2636C127.768 28.0859 128.486 25.9809 128.581 22.8912C128.784 16.3546 128.784 8.52644 128.784 6.64042C128.784 4.7177 129.24 2.42755 130.811 0.212402C130.811 0.212402 127.223 1.23296 127.223 7.8575C127.223 9.7376 127.223 16.331 127.021 22.8446C126.869 27.7552 125.213 28.5177 124.845 28.5177C124.479 28.5177 122.822 27.7552 122.67 22.8446C122.468 16.331 122.468 9.7376 122.468 7.8575C122.468 1.23296 118.879 0.212402 118.879 0.212402C120.412 2.12289 120.908 4.51959 120.908 6.4431Z" fill="#2C2E2B"/>
</svg>
