<svg width="73" height="60" viewBox="0 0 73 60" fill="none" xmlns="http://www.w3.org/2000/svg">
<path d="M20.3071 53.8772C20.3071 52.0848 20.3071 44.4578 20.1209 38.2452C20.033 35.3084 19.3727 33.3085 18.2654 32.1886C17.437 31.3514 16.1209 31.1632 15.106 32.1886C13.9994 33.3085 13.3388 35.3084 13.2512 38.2452C13.0654 44.4574 13.0654 51.8973 13.0654 53.6897C13.0654 55.5167 12.6462 57.6928 11.2002 59.7977C11.2002 59.7977 14.5002 58.8285 14.5002 52.533C14.5002 52.29 14.5006 52.2525 14.5006 52.2273C14.4969 52.0766 14.6504 51.5668 15.1486 51.5668C15.3716 51.5668 17.2197 51.5668 18.225 51.5668C18.61 51.5668 18.87 51.9164 18.8723 52.2273C18.8734 52.3402 18.8723 52.4422 18.8723 52.533C18.8723 58.8285 22.1723 59.7977 22.1723 59.7977C20.763 57.9827 20.3071 55.7046 20.3071 53.8772ZM15.1731 50.1161C14.7951 50.1161 14.5061 49.8438 14.5061 49.4605C14.5061 46.6152 14.5607 42.4354 14.6849 38.2891C14.8248 33.6229 16.3483 32.8975 16.6855 32.8975C17.0227 32.8975 18.5466 33.6229 18.6868 38.2891C18.8111 42.4377 18.8652 46.6193 18.8652 49.4653C18.8652 49.7515 18.6408 50.1161 18.2083 50.1161H15.1731Z" fill="#2C2E2B"/>
<path d="M8.50226 50.1547C7.86756 50.0598 6.87452 49.8014 6.2261 49.0951C6.18084 49.0464 6.15041 48.7726 6.17823 48.6878C6.63896 47.2723 7.22099 45.7927 7.94583 44.0197C10.4538 37.8806 10.5952 32.7058 10.6 32.489C10.6082 32.1169 10.317 31.809 9.94898 31.8004C9.58099 31.7918 9.27644 32.0866 9.26828 32.459C9.26754 32.5097 9.1288 37.5963 6.71426 43.5051C6.27431 44.5827 5.88556 45.5553 5.5428 46.4704C5.45562 46.7033 5.14588 46.6853 5.08244 46.4442C4.5709 44.5081 4.41843 42.3709 4.29824 40.685C4.28081 40.4405 4.11277 38.0051 4.0894 37.7812C3.43875 31.5795 0 31.824 0 31.824C0.736714 32.1758 2.28434 33.4496 2.68423 37.9204C2.70389 38.1432 2.84967 40.5477 2.8671 40.7889C3.03811 43.1923 3.29667 46.455 4.48632 49.0351C4.54085 49.1537 4.55384 49.4203 4.51044 49.5764C3.76853 52.2506 3.41983 54.9319 3.35046 59.1376C3.34415 59.5089 3.63757 59.8161 4.00556 59.8217C4.0089 59.8217 4.01299 59.8217 4.01632 59.8217C4.37949 59.8217 4.67625 59.528 4.68218 59.1593C4.74265 55.52 5.03051 53.063 5.59102 50.7263C5.61291 50.6325 5.70972 50.5676 5.80283 50.6359C6.6397 51.2439 7.62125 51.4869 8.29453 51.5886C8.75006 51.6584 9.09208 51.2788 9.10692 50.906C9.1225 50.5331 8.85727 50.208 8.50226 50.1547Z" fill="#2C2E2B"/>
<path d="M32.4904 37.5573C32.4904 34.1033 33.1571 33.067 34.2213 31.8101C34.2213 31.8101 30.9399 32.1601 31.0552 38.456C31.0812 39.8358 31.1424 44.1446 31.1424 48.8645C31.1424 49.1041 30.7822 49.3296 30.6116 48.9702C29.5365 46.6988 27.8899 43.0595 26.1757 39.0497C24.3373 34.7488 24.2887 32.5036 24.2883 32.4605C24.2872 32.0899 23.9893 31.7895 23.6224 31.7895C23.2544 31.7895 22.9558 32.0915 22.9558 32.4631C22.9558 32.5483 22.9729 34.2721 24.1636 37.584C24.1993 37.6822 24.2709 38.1574 24.2701 38.2973C24.2319 44.3963 24.3458 52.341 24.3458 53.9932C24.3458 57.4468 23.6799 58.4835 22.6145 59.7399C22.6145 59.7399 25.8964 59.3904 25.7806 53.0952C25.755 51.7116 25.6935 47.3863 25.6935 42.6526C25.6935 42.3364 26.1022 42.246 26.2306 42.5303C28.0342 46.5308 29.548 49.8577 30.2184 51.2743C30.4469 51.7562 30.6628 52.1805 30.8712 52.5908C31.8372 54.4901 32.476 55.7451 32.476 59.1477C32.476 59.5198 32.7739 59.8209 33.1418 59.8209C33.5098 59.8209 33.8077 59.5198 33.8077 59.1477C33.8077 56.3009 33.3574 54.7422 32.7086 53.3071C32.6622 53.2055 32.5691 52.7491 32.5695 52.62C32.5965 46.6167 32.4904 39.1521 32.4904 37.5573Z" fill="#2C2E2B"/>
<path d="M47.2818 50.0287C46.6468 49.9338 45.6537 49.6743 45.0053 48.9684C44.9604 48.9197 44.9296 48.6459 44.9574 48.5607C45.4182 47.1456 46.0002 45.666 46.725 43.8926C49.233 37.7543 49.3744 32.5798 49.3792 32.3619C49.387 31.9906 49.0958 31.6819 48.7278 31.674C48.3598 31.6647 48.0553 31.961 48.0467 32.3327C48.046 32.3829 47.9073 37.47 45.4927 43.3788C45.0528 44.4564 44.6644 45.4285 44.3216 46.3444C44.2344 46.5762 43.9251 46.559 43.8613 46.3178C43.3497 44.3813 43.1976 42.2446 43.0774 40.5579C43.0596 40.3145 42.892 37.8788 42.8686 37.6545C42.2176 31.4531 38.7792 31.6973 38.7792 31.6973C39.5159 32.0502 41.0632 33.3225 41.4631 37.7944C41.4831 38.0164 41.6285 40.4206 41.6463 40.6622C41.8173 43.066 42.0759 46.3279 43.2652 48.908C43.3197 49.0266 43.3327 49.2932 43.2893 49.4493C42.5474 52.1246 42.1987 54.8052 42.1289 59.0105C42.1226 59.3826 42.416 59.689 42.7844 59.6954C42.7877 59.6961 42.7918 59.6961 42.7952 59.6961C43.1583 59.6961 43.4547 59.4017 43.461 59.033C43.5215 55.3937 43.8093 52.9363 44.3698 50.5996C44.3921 50.5062 44.4882 50.4413 44.5817 50.5092C45.4185 51.1172 46.3997 51.3598 47.0734 51.4619C47.5293 51.5316 47.8709 51.1521 47.8857 50.7789C47.9021 50.4068 47.6368 50.0809 47.2818 50.0287Z" fill="#2C2E2B"/>
<path d="M71.2692 37.4314C71.2692 33.9766 71.9358 32.9407 73.0001 31.6846C73.0001 31.6846 69.7186 32.0338 69.834 38.3296C69.8599 39.7103 69.9215 44.0179 69.9215 48.7385C69.9215 48.9774 69.5613 49.2036 69.3903 48.8443C68.3153 46.5729 66.6683 42.9332 64.9541 38.9237C63.116 34.6228 63.0674 32.3777 63.0667 32.3346C63.0652 31.964 62.768 31.6628 62.4008 31.6628C62.0328 31.6628 61.7342 31.9647 61.7342 32.3376C61.7342 32.4216 61.7509 34.1465 62.942 37.458C62.9776 37.5555 63.0492 38.0311 63.0485 38.171C63.0099 44.2696 63.1238 52.2147 63.1238 53.8665C63.1238 57.3208 62.4579 58.3568 61.3929 59.614C61.3929 59.614 64.6751 59.2637 64.559 52.9689C64.533 51.5849 64.4722 47.2604 64.4722 42.527C64.4722 42.2101 64.881 42.1201 65.009 42.4036C66.8122 46.4052 68.3264 49.7321 68.9967 51.1476C69.2249 51.6299 69.4408 52.0537 69.6496 52.4641C70.616 54.3634 71.2544 55.6188 71.2544 59.0206C71.2544 59.3927 71.5522 59.6946 71.9202 59.6946C72.2882 59.6946 72.5861 59.3927 72.5861 59.0206C72.5861 56.1746 72.1361 54.6151 71.4869 53.1805C71.4406 53.0788 71.3478 52.6227 71.3478 52.4941C71.376 46.4908 71.2692 39.0261 71.2692 37.4314Z" fill="#2C2E2B"/>
<path d="M51.8441 37.6118C51.8441 39.4035 51.8441 47.0312 52.0303 53.2438C52.1179 56.1803 52.7785 58.1809 53.8851 59.3001C54.7138 60.1372 56.0307 60.3248 57.0441 59.3001C58.1518 58.1809 58.8121 56.1803 58.8997 53.2438C59.0866 47.0316 59.0866 39.5918 59.0866 37.7993C59.0866 35.972 59.5054 33.7955 60.9507 31.6902C60.9507 31.6902 57.651 32.6601 57.651 38.956C57.651 40.7428 57.651 47.0091 57.4655 53.1996C57.3257 57.8666 55.8022 58.5912 55.4646 58.5912C55.1274 58.5912 53.6035 57.8666 53.4641 53.1996C53.2786 47.0091 53.2786 40.7428 53.2786 38.956C53.2786 32.6601 49.9786 31.6902 49.9786 31.6902C51.3875 33.5059 51.8441 35.7837 51.8441 37.6118Z" fill="#2C2E2B"/>
<path d="M8.97665 24.5219C10.456 24.5219 16.6906 15.5469 20.3894 9.02938C23.6861 3.22071 27.1523 0 30.4282 0C32.9644 0 36.2403 1.97698 39.3047 9.02938C35.5006 3.58002 33.5167 2.61534 30.3054 2.61534C26.6749 2.61534 24.8394 4.28589 21.1406 9.73487C16.8746 16.021 11.1111 24.4638 8.97665 24.5219Z" fill="#2C2E2B"/>
<path d="M28.8432 24.6288C28.8432 24.6288 35.2893 9.77499 43.2147 9.77499C47.0207 9.77499 50.8504 14.101 54.7058 18.4195C59.3123 23.5801 63.0823 28.154 65.9345 28.154C58.649 28.154 52.1914 12.2861 42.8712 12.2861C35.4358 12.2861 28.8432 24.6288 28.8432 24.6288Z" fill="#2C2E2B"/>
</svg>
