<svg width="20" height="20" viewBox="0 0 20 20" fill="none" xmlns="http://www.w3.org/2000/svg">
<g clip-path="url(#clip0_277_75740)">
<path d="M9.65503 4.38813C11.1819 4.38813 12.6207 5.065 13.675 6.12313V6.12625C13.675 5.61813 14.0169 5.23375 14.4894 5.23375H14.6094C15.355 5.23375 15.5044 5.93688 15.5044 6.15875L15.5075 14.0556C15.4557 14.5731 16.0419 14.8406 16.3675 14.5081C17.6332 13.2063 19.15 7.80875 15.5794 4.68375C12.2494 1.76688 7.78003 2.24875 5.40378 3.88625C2.87815 5.63125 1.26378 9.48563 2.8319 13.1081C4.5444 17.0575 9.44003 18.2356 12.3538 17.0606C13.8288 16.465 14.5088 18.4563 12.9757 19.1081C10.665 20.0938 4.22565 19.9931 1.21815 14.785C-0.813721 11.2669 -0.706221 5.07813 4.68503 1.87188C8.80565 -0.582499 14.2425 0.0975018 17.52 3.51938C20.945 7.1 20.7469 13.7994 17.4032 16.4038C15.8888 17.5881 13.64 16.4363 13.6563 14.7106L13.6394 14.1481C12.585 15.1925 11.1819 15.805 9.65503 15.805C6.6344 15.805 3.97503 13.145 3.97503 10.1275C3.97503 7.0775 6.6344 4.38938 9.65503 4.38938V4.38813ZM13.4544 9.90938C13.34 7.69875 11.6994 6.3675 9.7169 6.3675H9.6419C7.3569 6.3675 6.08753 8.1675 6.08753 10.2081C6.08753 12.4963 7.62065 13.9413 9.63253 13.9413C11.8782 13.9413 13.3525 12.2981 13.46 10.3544L13.4544 9.90938Z" fill="#1A1A1A"/>
</g>
<defs>
<clipPath id="clip0_277_75740">
<rect width="20" height="20" fill="white"/>
</clipPath>
</defs>
</svg>
