<svg width="20" height="20" viewBox="0 0 20 20" fill="none" xmlns="http://www.w3.org/2000/svg">
<g clip-path="url(#clip0_277_75737)">
<path d="M10.2954 0C7.44869 0 5.13291 2.31542 5.13291 5.16188C5.13291 8.00812 7.44869 10.3225 10.2954 10.3225C13.142 10.3225 15.4567 8.00812 15.4567 5.16188C15.4567 2.31542 13.142 0 10.2954 0ZM10.2954 3.02438C11.4736 3.02438 12.4317 3.98372 12.4317 5.16188C12.4317 6.33954 11.4736 7.29814 10.2954 7.29814C9.11699 7.29814 8.15791 6.33956 8.15791 5.16188C8.15791 3.98372 9.11699 3.02438 10.2954 3.02438ZM6.03917 10.4981C5.52841 10.4902 5.02615 10.7419 4.73479 11.2062C4.28953 11.9136 4.50283 12.847 5.20855 13.2919C6.14203 13.8775 7.15497 14.293 8.20543 14.5325L5.32043 17.4187C4.72983 18.0096 4.73033 18.9666 5.32105 19.5575C5.61713 19.8524 6.00329 20 6.39043 20C6.77717 20 7.16463 19.8522 7.45981 19.5569L10.2942 16.7213L13.1311 19.5569C13.7212 20.1476 14.678 20.1476 15.2692 19.5569C15.86 18.9664 15.86 18.0084 15.2692 17.4188L12.3829 14.5331C13.4337 14.2936 14.447 13.8779 15.3798 13.2919C16.0869 12.847 16.3005 11.9126 15.8554 11.2063C15.4098 10.4988 14.4768 10.2856 13.7692 10.7313C11.6557 12.0606 8.93257 12.0598 6.81979 10.7313C6.57659 10.5781 6.30671 10.5023 6.03917 10.4981V10.4981Z" fill="#1A1A1A"/>
</g>
<defs>
<clipPath id="clip0_277_75737">
<rect width="11.59" height="20" fill="white" transform="translate(4.5)"/>
</clipPath>
</defs>
</svg>
