<svg width="20" height="20" viewBox="0 0 20 20" fill="none" xmlns="http://www.w3.org/2000/svg">
<path d="M16.6914 5.63867C16.8086 5.75586 16.875 5.91406 16.875 6.08008V18.125C16.875 18.4707 16.5957 18.75 16.25 18.75H3.75C3.4043 18.75 3.125 18.4707 3.125 18.125V1.875C3.125 1.5293 3.4043 1.25 3.75 1.25H12.0449C12.2109 1.25 12.3711 1.31641 12.4883 1.43359L16.6914 5.63867ZM15.4336 6.36719L11.7578 2.69141V6.36719H15.4336ZM12.3676 12.4465C12.0711 12.4367 11.7559 12.4596 11.3979 12.5043C10.9232 12.2115 10.6037 11.8094 10.3768 11.2186L10.3977 11.133L10.4219 11.0318C10.5059 10.6777 10.551 10.4193 10.5645 10.1588C10.5746 9.96211 10.5637 9.78066 10.5287 9.6125C10.4643 9.24941 10.2074 9.03711 9.88379 9.02402C9.58203 9.01172 9.30469 9.18027 9.23379 9.44141C9.11836 9.86367 9.18594 10.4193 9.43066 11.367C9.11895 12.1102 8.70703 12.9814 8.43066 13.4674C8.06172 13.6576 7.77441 13.8307 7.53301 14.0225C7.21465 14.2758 7.01582 14.5361 6.96113 14.8096C6.93457 14.9363 6.97461 15.102 7.06582 15.2377C7.16934 15.3916 7.3252 15.4916 7.51211 15.5061C7.98379 15.5426 8.56348 15.0563 9.20352 13.958C9.26777 13.9365 9.33574 13.9139 9.41875 13.8857L9.65117 13.8072C9.79824 13.7576 9.90488 13.7221 10.0104 13.6879C10.4674 13.5391 10.8131 13.4451 11.1275 13.3916C11.674 13.6842 12.3057 13.876 12.7311 13.876C13.0822 13.876 13.3195 13.6939 13.4053 13.4074C13.4805 13.1559 13.4209 12.8641 13.2592 12.7027C13.092 12.5385 12.7846 12.46 12.3676 12.4465ZM7.52402 14.9547V14.9477L7.52656 14.941C7.55514 14.8671 7.59182 14.7967 7.63594 14.7309C7.71953 14.6023 7.83457 14.4672 7.97715 14.3232C8.05371 14.2461 8.1334 14.1709 8.22695 14.0865C8.24785 14.0678 8.38145 13.9488 8.40645 13.9254L8.62461 13.7223L8.46602 13.9748C8.22539 14.3584 8.00781 14.6346 7.82148 14.8146C7.75293 14.8811 7.69258 14.9299 7.64375 14.9613C7.62763 14.9721 7.61057 14.9814 7.59277 14.9891C7.58477 14.9924 7.57773 14.9943 7.5707 14.9949C7.56328 14.9959 7.55574 14.9949 7.54883 14.992C7.54148 14.9889 7.5352 14.9837 7.53079 14.9771C7.52637 14.9705 7.52402 14.9627 7.52402 14.9547ZM9.98379 10.6914L9.93965 10.7695L9.9123 10.684C9.85176 10.492 9.80723 10.2027 9.79492 9.9418C9.78086 9.64492 9.80449 9.4668 9.89824 9.4668C10.0299 9.4668 10.0902 9.67773 10.0949 9.99512C10.0992 10.274 10.0553 10.5643 9.98359 10.6914H9.98379ZM9.87031 11.8332L9.9002 11.7541L9.94102 11.8283C10.1693 12.2432 10.4656 12.5893 10.7914 12.8305L10.8617 12.8824L10.776 12.9C10.457 12.966 10.16 13.0652 9.75371 13.2291C9.79609 13.2119 9.33145 13.4021 9.21387 13.4473L9.11133 13.4865L9.16602 13.3912C9.40723 12.9713 9.63008 12.467 9.87012 11.8332H9.87031ZM12.9488 13.3227C12.7953 13.3832 12.4648 13.3291 11.883 13.0807L11.7354 13.0178L11.8955 13.0061C12.3506 12.9723 12.6729 12.9973 12.8607 13.066C12.9408 13.0953 12.9941 13.1322 13.0178 13.1744C13.0302 13.1944 13.0344 13.2184 13.0294 13.2414C13.0245 13.2644 13.0108 13.2846 12.9912 13.2977C12.9788 13.3086 12.9644 13.3171 12.9488 13.3227Z" fill="#DB4212"/>
</svg>
