<svg width="20" height="20" viewBox="0 0 20 20" fill="none" xmlns="http://www.w3.org/2000/svg">
<path d="M16.6914 5.63867C16.8086 5.75586 16.875 5.91406 16.875 6.08008V18.125C16.875 18.4707 16.5957 18.75 16.25 18.75H3.75C3.4043 18.75 3.125 18.4707 3.125 18.125V1.875C3.125 1.5293 3.4043 1.25 3.75 1.25H12.0449C12.2109 1.25 12.3711 1.31641 12.4883 1.43359L16.6914 5.63867ZM15.4336 6.36719L11.7578 2.69141V6.36719H15.4336ZM9.15098 14.8438V13.0559H10.3086C11.4916 13.0559 12.2656 12.2814 12.2656 11.1395C12.2656 10.0023 11.4926 9.21875 10.3129 9.21875H8.28125C8.21909 9.21875 8.15948 9.24344 8.11552 9.2874C8.07157 9.33135 8.04688 9.39096 8.04688 9.45312V14.8438C8.04688 14.9059 8.07157 14.9655 8.11552 15.0095C8.15948 15.0534 8.21909 15.0781 8.28125 15.0781H8.9166C8.97876 15.0781 9.03838 15.0534 9.08233 15.0095C9.12628 14.9655 9.15098 14.9059 9.15098 14.8438ZM9.15098 12.1225H9.83262C10.7666 12.1225 11.1449 11.8699 11.1449 11.1395C11.1449 10.5135 10.791 10.1605 10.1709 10.1605H9.15098V12.1225Z" fill="#DDB012"/>
</svg>
