<svg width="20" height="20" viewBox="0 0 20 20" fill="none" xmlns="http://www.w3.org/2000/svg">
<path d="M5 8.33333H5.83333V2.5H12.0833C14.1667 2.5 15.8333 4.16667 15.8333 6.25C15.8333 8.33333 14.1667 10 12.0833 10H7.5V11.6667H12.5V13.3333H7.5V17.5H5.83333V13.3333H5V11.6667H5.83333V10H5V8.33333ZM12.0833 4.16667H7.5V8.33333H12.0833C12.6359 8.33333 13.1658 8.11384 13.5565 7.72314C13.9472 7.33244 14.1667 6.80253 14.1667 6.25C14.1667 5.69747 13.9472 5.16756 13.5565 4.77686C13.1658 4.38616 12.6359 4.16667 12.0833 4.16667Z" fill="#1A1A1A"/>
</svg>
