<svg width="20" height="20" viewBox="0 0 20 20" fill="none" xmlns="http://www.w3.org/2000/svg">
<path d="M19.1914 9.74414L2.85349 1.55273C2.78708 1.51953 2.71091 1.51172 2.63864 1.5293C2.47263 1.57031 2.36911 1.73828 2.41013 1.90625L4.09372 8.78515C4.11911 8.88867 4.19528 8.97265 4.29685 9.00586L7.18161 9.99609L4.2988 10.9863C4.19724 11.0215 4.12107 11.1035 4.09763 11.207L2.41013 18.0957C2.39255 18.168 2.40036 18.2441 2.43357 18.3086C2.50974 18.4629 2.69724 18.5254 2.85349 18.4492L19.1914 10.3047C19.2519 10.2754 19.3008 10.2246 19.332 10.166C19.4082 10.0098 19.3457 9.82226 19.1914 9.74414ZM4.33591 16.1387L5.31833 12.123L11.084 10.1445C11.1289 10.1289 11.166 10.0937 11.1816 10.0469C11.209 9.96484 11.166 9.87695 11.084 9.84765L5.31833 7.87109L4.33982 3.87109L16.6054 10.0215L4.33591 16.1387Z" fill="#1A1A1A"/>
</svg>
