<svg width="20" height="20" viewBox="0 0 20 20" fill="none" xmlns="http://www.w3.org/2000/svg">
<g clip-path="url(#clip0_261_59125)">
<path d="M19.0621 11.6414C19.0558 11.6766 19.0513 11.7121 19.0447 11.7473L19.0105 11.5458C19.0292 11.5772 19.0447 11.6098 19.0621 11.6415C19.1663 11.0768 19.219 10.5038 19.2196 9.92953C19.2196 8.65469 18.9699 7.41781 18.4768 6.25352C18.001 5.12883 17.3204 4.11875 16.4526 3.25156C15.586 2.38437 14.5753 1.70367 13.4512 1.22797C12.2872 0.735469 11.0504 0.485859 9.77557 0.485859C9.17478 0.485859 8.57291 0.542266 7.98729 0.654688C7.98604 0.655 7.98447 0.655 7.98283 0.655312C8.0158 0.672734 8.04908 0.688281 8.08135 0.706328L7.88275 0.675234C7.91604 0.668984 7.94963 0.661953 7.98283 0.655312C7.17939 0.228125 6.27564 0 5.36096 0C3.86768 0 2.46354 0.581484 1.40752 1.63781C0.351816 2.69383 -0.22998 4.09789 -0.22998 5.59125C-0.229474 6.53986 0.0126136 7.47272 0.473457 8.30188C0.479473 8.26766 0.483613 8.23312 0.490254 8.19891L0.524473 8.39688C0.506738 8.36586 0.491191 8.33352 0.473457 8.30188C0.379463 8.83934 0.331892 9.38391 0.33127 9.92953C0.33127 11.2047 0.580879 12.4412 1.074 13.6059C1.54908 14.7309 2.2301 15.7402 3.09697 16.6074C3.96479 17.4747 4.97424 18.1563 6.09955 18.6308C7.26361 19.1242 8.50072 19.3741 9.77557 19.3741C10.3305 19.3741 10.8867 19.3234 11.4295 19.2272C11.3978 19.2095 11.3656 19.1933 11.3332 19.1746L11.535 19.2101C11.5002 19.2167 11.465 19.2209 11.4296 19.2272C12.2685 19.702 13.216 19.9517 14.18 19.9519C15.6731 19.9519 17.0765 19.3713 18.1325 18.3147C19.1888 17.2593 19.77 15.8549 19.77 14.3616C19.7695 13.4094 19.5258 12.4731 19.0621 11.6415V11.6414ZM9.81322 15.7134C6.45814 15.7134 4.95713 14.0638 4.95713 12.8277C4.95713 12.1935 5.42525 11.7491 6.07041 11.7491C7.50619 11.7491 7.13432 13.8108 9.81322 13.8108C11.1847 13.8108 11.942 13.0661 11.942 12.3041C11.942 11.8458 11.7159 11.3377 10.8128 11.115L7.82861 10.3701C5.42525 9.76734 4.98908 8.46813 4.98908 7.2468C4.98908 4.71109 7.37658 3.75898 9.61877 3.75898C11.6842 3.75898 14.1189 4.90047 14.1189 6.42172C14.1189 7.07359 13.5545 7.45266 12.9096 7.45266C11.6842 7.45266 11.9097 5.75656 9.44143 5.75656C8.21658 5.75656 7.53814 6.31125 7.53814 7.10492C7.53814 7.89711 8.50549 8.15016 9.34541 8.34141L11.5543 8.83172C13.9738 9.37078 14.5874 10.7834 14.5874 12.114C14.5874 14.1747 13.0056 15.7134 9.81322 15.7134ZM11.3332 19.1746C11.3656 19.1934 11.3978 19.2095 11.4296 19.2272C11.465 19.2209 11.5002 19.2167 11.535 19.21L11.3332 19.1746ZM19.0447 11.7473C19.0513 11.7121 19.0558 11.6766 19.0621 11.6415C19.0447 11.6098 19.0292 11.5772 19.0106 11.5458L19.0447 11.7473ZM0.490254 8.19891C0.483613 8.23312 0.479473 8.26766 0.473457 8.30188C0.491191 8.33352 0.506738 8.36586 0.524473 8.39688L0.490254 8.19891ZM8.08135 0.706328C8.04908 0.688281 8.0158 0.672734 7.98291 0.655312C7.94963 0.661953 7.91604 0.668906 7.88275 0.675234L8.08135 0.706328Z" fill="#00AFF0"/>
</g>
<defs>
<clipPath id="clip0_261_59125">
<rect width="20" height="20" fill="white"/>
</clipPath>
</defs>
</svg>
