<svg width="20" height="20" viewBox="0 0 20 20" fill="none" xmlns="http://www.w3.org/2000/svg">
<path d="M16.3984 8.47266L14.6289 2.93946C14.6174 2.90243 14.5943 2.8701 14.563 2.84723C14.5317 2.82436 14.4939 2.81219 14.4551 2.81251H12.9434C12.8633 2.81251 12.7949 2.86329 12.7695 2.93946L10.9863 8.47266C10.9805 8.49024 10.9766 8.50977 10.9766 8.5293C10.9766 8.62891 11.0586 8.71094 11.1582 8.71094H12.2598C12.3418 8.71094 12.4121 8.65626 12.4356 8.57813L12.7774 7.37501H14.5156L14.8535 8.57618C14.875 8.6543 14.9473 8.70899 15.0293 8.70899H16.2246C16.2442 8.70899 16.2617 8.70704 16.2793 8.70118C16.3262 8.68555 16.3633 8.6543 16.3867 8.61133C16.4082 8.56837 16.4121 8.51954 16.3984 8.47266ZM12.9551 6.35743L13.5957 4.07422H13.7188L14.3457 6.35743H12.9551ZM15.7578 15.9844H13.2266V15.9766L15.8164 12.2871C15.8379 12.2559 15.8496 12.2207 15.8496 12.1816V11.4707C15.8496 11.3711 15.7676 11.2891 15.668 11.2891H11.6836C11.584 11.2891 11.502 11.3711 11.502 11.4707V12.3106C11.502 12.4102 11.584 12.4922 11.6836 12.4922H14.0781V12.5L11.4785 16.1895C11.4568 16.2203 11.4452 16.2572 11.4453 16.2949V17.0059C11.4453 17.1055 11.5274 17.1875 11.627 17.1875H15.7559C15.8555 17.1875 15.9375 17.1055 15.9375 17.0059V16.166C15.9378 16.1423 15.9333 16.1187 15.9244 16.0967C15.9155 16.0746 15.9023 16.0546 15.8856 16.0377C15.8689 16.0208 15.849 16.0074 15.827 15.9982C15.8051 15.9891 15.7816 15.9844 15.7578 15.9844ZM6.06056 3.26368C6.04594 3.245 6.02727 3.2299 6.00595 3.21951C5.98463 3.20913 5.96123 3.20373 5.93751 3.20373C5.9138 3.20373 5.89039 3.20913 5.86907 3.21951C5.84776 3.2299 5.82908 3.245 5.81447 3.26368L3.62697 6.03516C3.54493 6.13868 3.61915 6.28907 3.75001 6.28907H5.23439V16.6406C5.23439 16.7266 5.3047 16.7969 5.39064 16.7969H6.48439C6.57032 16.7969 6.64064 16.7266 6.64064 16.6406V6.28907H8.12501C8.25587 6.28907 8.33009 6.13672 8.24806 6.03516L6.06056 3.26368Z" fill="#1A1A1A"/>
</svg>
