<svg width="18" height="17" viewBox="0 0 18 17" fill="none" xmlns="http://www.w3.org/2000/svg">
<path d="M16.7363 5.89649L11.7774 5.17579L9.56055 0.681648C9.50001 0.558601 9.4004 0.458992 9.27735 0.398445C8.96876 0.246101 8.59376 0.373054 8.43946 0.681648L6.22266 5.17579L1.26368 5.89649C1.12696 5.91602 1.00196 5.98048 0.906256 6.07813C0.790556 6.19705 0.7268 6.35704 0.728998 6.52294C0.731195 6.68884 0.799166 6.84709 0.917975 6.9629L4.50587 10.4609L3.65821 15.4004C3.63833 15.5153 3.65105 15.6335 3.69491 15.7415C3.73878 15.8496 3.81204 15.9432 3.90639 16.0117C4.00074 16.0802 4.1124 16.1209 4.22872 16.1292C4.34503 16.1375 4.46134 16.113 4.56446 16.0586L9.00001 13.7266L13.4356 16.0586C13.5566 16.1231 13.6973 16.1445 13.832 16.1211C14.1719 16.0625 14.4004 15.7402 14.3418 15.4004L13.4941 10.4609L17.082 6.9629C17.1797 6.8672 17.2441 6.74219 17.2637 6.60548C17.3164 6.26368 17.0781 5.94727 16.7363 5.89649ZM11.9844 9.96876L12.6895 14.0762L9.00001 12.1387L5.31055 14.0781L6.01563 9.97071L3.03126 7.06055L7.15626 6.46095L9.00001 2.72462L10.8438 6.46095L14.9688 7.06055L11.9844 9.96876Z" fill="#1A1A1A"/>
</svg>
