<svg width="20" height="20" viewBox="0 0 20 20" fill="none" xmlns="http://www.w3.org/2000/svg">
<path d="M2.34375 4.49219H12.0312C12.1172 4.49219 12.1875 4.42188 12.1875 4.33594V3.24219C12.1875 3.15625 12.1172 3.08594 12.0312 3.08594H2.34375C2.25781 3.08594 2.1875 3.15625 2.1875 3.24219V4.33594C2.1875 4.42188 2.25781 4.49219 2.34375 4.49219ZM2.34375 12.7734H12.0312C12.1172 12.7734 12.1875 12.7031 12.1875 12.6172V11.5234C12.1875 11.4375 12.1172 11.3672 12.0312 11.3672H2.34375C2.25781 11.3672 2.1875 11.4375 2.1875 11.5234V12.6172C2.1875 12.7031 2.25781 12.7734 2.34375 12.7734ZM17.6562 15.5078H2.34375C2.25781 15.5078 2.1875 15.5781 2.1875 15.6641V16.7578C2.1875 16.8438 2.25781 16.9141 2.34375 16.9141H17.6562C17.7422 16.9141 17.8125 16.8438 17.8125 16.7578V15.6641C17.8125 15.5781 17.7422 15.5078 17.6562 15.5078ZM17.6562 7.22656H2.34375C2.25781 7.22656 2.1875 7.29688 2.1875 7.38281V8.47656C2.1875 8.5625 2.25781 8.63281 2.34375 8.63281H17.6562C17.7422 8.63281 17.8125 8.5625 17.8125 8.47656V7.38281C17.8125 7.29688 17.7422 7.22656 17.6562 7.22656Z" fill="#1A1A1A"/>
</svg>
