<svg width="20" height="20" viewBox="0 0 20 20" fill="none" xmlns="http://www.w3.org/2000/svg">
<path d="M17.9688 7.125H12.0312C11.9453 7.125 11.875 7.19531 11.875 7.28125V9.46875C11.875 9.55469 11.9453 9.625 12.0312 9.625H12.9688C13.0547 9.625 13.125 9.55469 13.125 9.46875V8.375H14.2969V14.625H13.3984C13.3125 14.625 13.2422 14.6953 13.2422 14.7812V15.7188C13.2422 15.8047 13.3125 15.875 13.3984 15.875H16.6016C16.6875 15.875 16.7578 15.8047 16.7578 15.7188V14.7812C16.7578 14.6953 16.6875 14.625 16.6016 14.625H15.7031V8.375H16.875V9.46875C16.875 9.55469 16.9453 9.625 17.0312 9.625H17.9688C18.0547 9.625 18.125 9.55469 18.125 9.46875V7.28125C18.125 7.19531 18.0547 7.125 17.9688 7.125ZM12.8125 4.78125V2.28125C12.8125 2.19531 12.7422 2.125 12.6562 2.125H2.03125C1.94531 2.125 1.875 2.19531 1.875 2.28125V4.78125C1.875 4.86719 1.94531 4.9375 2.03125 4.9375H3.125C3.21094 4.9375 3.28125 4.86719 3.28125 4.78125V3.53125H6.5625V14.4688H4.76562C4.67969 14.4688 4.60938 14.5391 4.60938 14.625V15.7188C4.60938 15.8047 4.67969 15.875 4.76562 15.875H9.92188C10.0078 15.875 10.0781 15.8047 10.0781 15.7188V14.625C10.0781 14.5391 10.0078 14.4688 9.92188 14.4688H8.125V3.53125H11.4062V4.78125C11.4062 4.86719 11.4766 4.9375 11.5625 4.9375H12.6562C12.7422 4.9375 12.8125 4.86719 12.8125 4.78125Z" fill="#1A1A1A"/>
</svg>
