<svg width="20" height="20" viewBox="0 0 20 20" fill="none" xmlns="http://www.w3.org/2000/svg">
<g clip-path="url(#clip0_203_1651)">
<path d="M22.2688 2.43541C21.3674 2.83512 20.3988 3.10526 19.3822 3.22679C20.4199 2.60478 21.2168 1.61981 21.592 0.446219C20.6055 1.03166 19.5261 1.44414 18.4005 1.66584C17.4837 0.68909 16.1776 0.0786591 14.7319 0.0786591C11.9562 0.0786591 9.70579 2.32899 9.70579 5.1045C9.70579 5.49847 9.75028 5.88201 9.83593 6.24995C5.6589 6.04029 1.95555 4.03942 -0.523401 0.998659C-0.955937 1.74096 -1.20378 2.6044 -1.20378 3.52536C-1.20378 5.26909 -0.316415 6.80737 1.0321 7.70871C0.233967 7.68371 -0.546608 7.46814 -1.24445 7.08C-1.24474 7.10105 -1.24474 7.1221 -1.24474 7.14325C-1.24474 9.57837 0.4877 11.6098 2.78684 12.0715C2.04673 12.2728 1.27041 12.3022 0.517173 12.1576C1.15669 14.1544 3.01287 15.6074 5.2121 15.648C3.49201 16.996 1.32483 17.7995 -1.02981 17.7995C-1.43555 17.7995 -1.83555 17.7757 -2.22876 17.7293C-0.00454926 19.1553 2.63727 19.9874 5.47555 19.9874C14.7202 19.9874 19.7755 12.3289 19.7755 5.68737C19.7755 5.46938 19.7707 5.25263 19.7609 5.03713C20.7449 4.32582 21.5941 3.4448 22.2688 2.43541Z" fill="#55ACEE"/>
</g>
<defs>
<clipPath id="clip0_203_1651">
<rect width="20" height="20" fill="white"/>
</clipPath>
</defs>
</svg>
