<svg width="20" height="20" viewBox="0 0 20 20" fill="none" xmlns="http://www.w3.org/2000/svg">
<g clip-path="url(#clip0_203_1623)">
<path d="M17.3437 1.94922C16.8476 1.49219 14.8398 0.0351557 10.3633 0.0156245C10.3633 0.0156245 5.08592 -0.300782 2.5156 2.05859C1.08592 3.48828 0.58201 5.58594 0.527322 8.18359C0.472635 10.7812 0.406228 15.6484 5.09763 16.9687H5.10154L5.09763 18.9844C5.09763 18.9844 5.06638 19.8008 5.60545 19.9648C6.25388 20.168 6.6367 19.5469 7.25779 18.8789C7.59763 18.5117 8.06638 17.9727 8.42185 17.5625C11.6328 17.832 14.0976 17.2148 14.3789 17.125C15.0273 16.9141 18.6953 16.4453 19.289 11.5781C19.9062 6.55469 18.9922 3.38281 17.3437 1.94922ZM17.8867 11.2109C17.3828 15.2734 14.4101 15.5312 13.8633 15.707C13.6289 15.7812 11.4609 16.3203 8.73826 16.1445C8.73826 16.1445 6.70701 18.5937 6.0742 19.2305C5.86717 19.4375 5.6406 19.418 5.64451 19.0078C5.64451 18.7383 5.66013 15.6602 5.66013 15.6602C5.65623 15.6602 5.65623 15.6602 5.66013 15.6602C1.68357 14.5586 1.91795 10.4141 1.96092 8.24609C2.00388 6.07812 2.41404 4.30078 3.62498 3.10547C5.80076 1.13281 10.2812 1.42578 10.2812 1.42578C14.0664 1.44141 15.8789 2.58203 16.3008 2.96484C17.6953 4.16016 18.4062 7.01953 17.8867 11.2109ZM12.457 8.05469C12.4726 8.39062 11.9687 8.41406 11.9531 8.07812C11.9101 7.21875 11.5078 6.80078 10.6797 6.75391C10.3437 6.73437 10.375 6.23047 10.707 6.25C11.7969 6.30859 12.4023 6.93359 12.457 8.05469ZM13.25 8.49609C13.289 6.83984 12.2539 5.54297 10.289 5.39844C9.95701 5.375 9.99217 4.87109 10.3242 4.89453C12.5898 5.05859 13.7969 6.61719 13.7539 8.50781C13.75 8.84375 13.2422 8.82812 13.25 8.49609ZM15.0859 9.01953C15.0898 9.35547 14.582 9.35938 14.582 9.02344C14.5586 5.83984 12.4375 4.10547 9.86326 4.08594C9.53123 4.08203 9.53123 3.58203 9.86326 3.58203C12.7422 3.60156 15.0586 5.58984 15.0859 9.01953ZM14.6445 12.8516V12.8594C14.2226 13.6016 13.4336 14.4219 12.6211 14.1602L12.6133 14.1484C11.789 13.918 9.84763 12.918 8.62107 11.9414C7.98826 11.4414 7.41013 10.8516 6.96482 10.2852C6.56248 9.78125 6.15623 9.18359 5.7617 8.46484C4.92967 6.96094 4.74607 6.28906 4.74607 6.28906C4.48435 5.47656 5.30076 4.6875 6.04685 4.26562H6.05467C6.41404 4.07812 6.75779 4.14062 6.98826 4.41797C6.98826 4.41797 7.47263 4.99609 7.67967 5.28125C7.87498 5.54687 8.1367 5.97266 8.27342 6.21094C8.5117 6.63672 8.36326 7.07031 8.12888 7.25L7.66013 7.625C7.42185 7.81641 7.4531 8.17188 7.4531 8.17188C7.4531 8.17188 8.14842 10.8008 10.7461 11.4648C10.7461 11.4648 11.1015 11.4961 11.2929 11.2578L11.6679 10.7891C11.8476 10.5547 12.2812 10.4062 12.707 10.6445C13.2812 10.9687 14.0117 11.4727 14.4961 11.9297C14.7695 12.1523 14.832 12.4922 14.6445 12.8516Z" fill="#1A1A1A"/>
</g>
<defs>
<clipPath id="clip0_203_1623">
<rect width="20" height="20" fill="white"/>
</clipPath>
</defs>
</svg>
