<svg width="22" height="20" viewBox="0 0 22 20" fill="none" xmlns="http://www.w3.org/2000/svg">
<path d="M21.2891 4.59766C21.4336 4.10937 21.2891 3.75 20.5938 3.75H18.293C17.707 3.75 17.4375 4.05859 17.293 4.40234C17.293 4.40234 16.1211 7.25781 14.4648 9.10938C13.9297 9.64453 13.6836 9.81641 13.3906 9.81641C13.2461 9.81641 13.0234 9.64453 13.0234 9.15625V4.59766C13.0234 4.01172 12.8594 3.75 12.375 3.75H8.75781C8.39062 3.75 8.17187 4.02344 8.17187 4.27734C8.17187 4.83203 9 4.96094 9.08594 6.52344V9.91406C9.08594 10.6562 8.95312 10.793 8.66016 10.793C7.87891 10.793 5.98047 7.92578 4.85547 4.64453C4.62891 4.00781 4.40625 3.75 3.81641 3.75H1.51562C0.859375 3.75 0.726562 4.05859 0.726562 4.40234C0.726562 5.01172 1.50781 8.03906 4.36328 12.0391C6.26562 14.7695 8.94531 16.25 11.3828 16.25C12.8477 16.25 13.0273 15.9219 13.0273 15.3555C13.0273 12.7461 12.8945 12.5 13.6289 12.5C13.9687 12.5 14.5547 12.6719 15.9219 13.9883C17.4844 15.5508 17.7422 16.25 18.6172 16.25H20.918C21.5742 16.25 21.9063 15.9219 21.7148 15.2734C21.2773 13.9102 18.3203 11.1055 18.1875 10.918C17.8477 10.4805 17.9453 10.2852 18.1875 9.89453C18.1914 9.89062 21 5.9375 21.2891 4.59766Z" fill="#1A1A1A"/>
</svg>
