<svg width="20" height="20" viewBox="0 0 20 20" fill="none" xmlns="http://www.w3.org/2000/svg">
<path d="M5.22578 17.1292L5.54895 17.2908C6.89566 18.0988 8.40385 18.4758 9.91211 18.4758C14.6523 18.4758 18.5306 14.5975 18.5306 9.85738C18.5306 7.59506 17.6148 5.38657 15.9989 3.77058C14.3829 2.1546 12.2283 1.23892 9.91211 1.23892C5.17196 1.23892 1.29358 5.11722 1.34748 9.91128C1.34748 11.5272 1.83227 13.0893 2.64022 14.4359L2.85566 14.7592L1.99389 17.9372L5.22578 17.1292Z" fill="#00E676"/>
<path d="M16.9137 2.90873C15.0823 1.02347 12.5507 0 9.9651 0C4.47089 0 0.0538996 4.47081 0.107722 9.9112C0.107722 11.6349 0.59251 13.3048 1.40054 14.813L0 19.9302L5.22494 18.5836C6.67931 19.3916 8.29521 19.7686 9.91127 19.7686C15.3517 19.7686 19.7686 15.2978 19.7686 9.85745C19.7686 7.21799 18.7452 4.74015 16.9138 2.90873H16.9137ZM9.9651 18.0988C8.51073 18.0988 7.05637 17.7219 5.81745 16.9677L5.49429 16.8061L2.37012 17.6141L3.17807 14.5438L2.96263 14.2205C0.59251 10.3961 1.72371 5.33266 5.60201 2.96255C9.48031 0.59251 14.4898 1.72371 16.8599 5.60201C19.23 9.48031 18.0988 14.4898 14.2205 16.8599C12.9815 17.6679 11.4734 18.0988 9.9651 18.0988V18.0988ZM14.7053 12.1198L14.1127 11.8505C14.1127 11.8505 13.251 11.4734 12.7123 11.2041C12.6584 11.2041 12.6046 11.1502 12.5507 11.1502C12.389 11.1502 12.2813 11.2041 12.1736 11.258C12.1736 11.258 12.1198 11.3118 11.3656 12.1737C11.3117 12.2814 11.204 12.3353 11.0963 12.3353H11.0424C10.9886 12.3353 10.8808 12.2814 10.8269 12.2276L10.5576 12.1198C9.9651 11.8505 9.42649 11.5273 8.99552 11.0964C8.8878 10.9886 8.72618 10.8809 8.61846 10.7732C8.24139 10.3961 7.86432 9.96517 7.59506 9.48039L7.54116 9.37266C7.48734 9.31876 7.48734 9.26494 7.43344 9.15722C7.43344 9.0495 7.43344 8.94178 7.48734 8.88788C7.48734 8.88788 7.70278 8.61853 7.86432 8.45699C7.97212 8.34919 8.02595 8.18764 8.13367 8.07992C8.24139 7.9183 8.29529 7.70286 8.24139 7.54123C8.18757 7.27189 7.54116 5.81753 7.37961 5.49436C7.27181 5.33274 7.16417 5.27892 7.00255 5.22502H6.41004C6.30224 5.22502 6.19459 5.27892 6.08679 5.27892L6.0329 5.33274C5.92517 5.38664 5.81745 5.49436 5.70973 5.54818C5.60201 5.65598 5.54811 5.76363 5.44039 5.87143C5.06332 6.35622 4.84788 6.94873 4.84788 7.54123C4.84788 7.97212 4.9556 8.40309 5.11722 8.78015L5.17112 8.94178C5.65591 9.96517 6.30224 10.8809 7.16417 11.6889L7.37961 11.9043C7.54116 12.0659 7.70278 12.1737 7.8105 12.3352C8.9417 13.3049 10.2344 14.0051 11.6888 14.3822C11.8504 14.436 12.0659 14.436 12.2275 14.4899H12.7661C13.0354 14.4899 13.3586 14.3822 13.5741 14.2744C13.7357 14.1667 13.8434 14.1667 13.9511 14.059L14.0589 13.9512C14.1666 13.8435 14.2744 13.7897 14.3821 13.6819C14.4898 13.5742 14.5975 13.4665 14.6514 13.3587C14.7591 13.1432 14.813 12.8739 14.8669 12.6046V12.2276C14.8669 12.2276 14.813 12.1737 14.7053 12.1198Z" fill="white"/>
</svg>
