<svg width="23" height="20" viewBox="0 0 23 20" fill="none" xmlns="http://www.w3.org/2000/svg">
<path d="M20.5586 5.1934C20.4439 4.76945 20.2201 4.38295 19.9096 4.07238C19.599 3.76182 19.2125 3.53803 18.7886 3.42329C17.2365 3 10.99 3 10.99 3C10.99 3 4.7432 3.01281 3.19115 3.4361C2.76719 3.55085 2.3807 3.77465 2.07015 4.08523C1.75959 4.39581 1.53582 4.78232 1.42112 5.20629C0.951655 7.96399 0.769542 12.1661 1.43401 14.8135C1.54873 15.2374 1.7725 15.6239 2.08305 15.9345C2.3936 16.2451 2.78009 16.4689 3.20404 16.5836C4.75609 17.0069 11.0028 17.0069 11.0028 17.0069C11.0028 17.0069 17.2494 17.0069 18.8013 16.5836C19.2253 16.4689 19.6118 16.2451 19.9224 15.9345C20.2329 15.6239 20.4567 15.2374 20.5714 14.8135C21.0666 12.0519 21.2192 7.85243 20.5586 5.19347V5.1934Z" fill="#FF0000"/>
<path d="M9.00171 13.0049L14.1837 10.0034L9.00179 7.00195L9.00171 13.0049Z" fill="white"/>
</svg>
