<svg width="20" height="20" viewBox="0 0 20 20" fill="none" xmlns="http://www.w3.org/2000/svg">
<path d="M16.6914 5.63867C16.8086 5.75586 16.875 5.91406 16.875 6.08008V18.125C16.875 18.4707 16.5957 18.75 16.25 18.75H3.75C3.4043 18.75 3.125 18.4707 3.125 18.125V1.875C3.125 1.5293 3.4043 1.25 3.75 1.25H12.0449C12.2109 1.25 12.3711 1.31641 12.4883 1.43359L16.6914 5.63867ZM15.4336 6.36719L11.7578 2.69141V6.36719H15.4336ZM5.78125 2.65625V3.90625H7.03125V2.65625H5.78125ZM7.03125 3.90625V5.15625H8.28125V3.90625H7.03125ZM5.78125 5.15625V6.40625H7.03125V5.15625H5.78125ZM7.03125 6.40625V7.65625H8.28125V6.40625H7.03125ZM5.78125 7.65625V8.90625H7.03125V7.65625H5.78125ZM7.03125 8.90625V10.1562H8.28125V8.90625H7.03125ZM5.78125 10.1562V11.4062H7.03125V10.1562H5.78125ZM5.78125 11.4062V14.5312H8.28125V11.4062H5.78125ZM6.71875 12.3438H7.34375V13.5938H6.71875V12.3438Z" fill="#858585"/>
</svg>
